<svg width="702" height="75" viewBox="0 0 702 75" fill="none" xmlns="http://www.w3.org/2000/svg">
<rect x="0.0499268" width="701.25" height="75" rx="10" fill="#686552" fill-opacity="0.41"/>
<g filter="url(#filter0_d_82_68)">
<path d="M585.05 49.375C585.05 54.8978 589.527 59.375 595.05 59.375H672.55C678.073 59.375 682.55 54.8978 682.55 49.375V21.25C682.55 15.7272 678.073 11.25 672.55 11.25H595.05C589.527 11.25 585.05 15.7272 585.05 21.25V49.375Z" fill="#8E8168"/>
</g>
<circle cx="7.1875" cy="7.1875" r="7.1875" transform="matrix(1 0 0 -1 659.425 32.4999)" fill="#4F4F4F"/>
<circle cx="5.05787" cy="5.05787" r="5.05787" transform="matrix(1 0 0 -1 661.555 30.3704)" fill="black"/>
<circle cx="3.46065" cy="3.46065" r="3.46065" transform="matrix(1 0 0 -1 663.152 28.7732)" fill="#464646"/>
<g filter="url(#filter1_d_82_68)">
<path d="M16.3002 49.375C16.3002 54.8978 20.7773 59.375 26.3002 59.375H103.8C109.323 59.375 113.8 54.8978 113.8 49.375V21.25C113.8 15.7272 109.323 11.25 103.8 11.25H26.3002C20.7773 11.25 16.3002 15.7272 16.3002 21.25V49.375Z" fill="#8E8168"/>
</g>
<g filter="url(#filter2_d_82_68)">
<path d="M130.05 49.375C130.05 54.8978 134.527 59.375 140.05 59.375H217.55C223.073 59.375 227.55 54.8978 227.55 49.375V21.25C227.55 15.7272 223.073 11.25 217.55 11.25H140.05C134.527 11.25 130.05 15.7272 130.05 21.25V49.375Z" fill="#8E8168"/>
</g>
<g filter="url(#filter3_d_82_68)">
<path d="M243.8 49.375C243.8 54.8978 248.277 59.375 253.8 59.375H331.3C336.823 59.375 341.3 54.8978 341.3 49.375V21.25C341.3 15.7272 336.823 11.25 331.3 11.25H253.8C248.277 11.25 243.8 15.7272 243.8 21.25V49.375Z" fill="#8E8168"/>
</g>
<g filter="url(#filter4_d_82_68)">
<path d="M357.55 49.375C357.55 54.8978 362.027 59.375 367.55 59.375H445.05C450.573 59.375 455.05 54.8978 455.05 49.375V21.25C455.05 15.7272 450.573 11.25 445.05 11.25H367.55C362.027 11.25 357.55 15.7272 357.55 21.25V49.375Z" fill="#8E8168"/>
</g>
<g filter="url(#filter5_d_82_68)">
<path d="M471.3 49.375C471.3 54.8978 475.777 59.375 481.3 59.375H558.8C564.323 59.375 568.8 54.8978 568.8 49.375V21.25C568.8 15.7272 564.323 11.25 558.8 11.25H481.3C475.777 11.25 471.3 15.7272 471.3 21.25V49.375Z" fill="#8E8168"/>
</g>
<rect width="53.125" height="11.25" transform="matrix(1 0 0 -1 94.4249 50)" fill="#292929"/>
<circle cx="8.4375" cy="8.4375" r="8.4375" transform="matrix(1 0 0 -1 89.4249 52.5)" fill="#4F4F4F"/>
<circle cx="5.9375" cy="5.9375" r="5.9375" transform="matrix(1 0 0 -1 91.9249 50)" fill="black"/>
<circle cx="8.4375" cy="8.4375" r="8.4375" transform="matrix(1 0 0 -1 138.175 52.5)" fill="#4F4F4F"/>
<circle cx="5.9375" cy="5.9375" r="5.9375" transform="matrix(1 0 0 -1 140.675 50)" fill="black"/>
<rect width="53.125" height="11.25" transform="matrix(1 0 0 -1 207.55 33.7501)" fill="#292929"/>
<circle cx="8.4375" cy="8.4375" r="8.4375" transform="matrix(1 0 0 -1 202.55 36.2501)" fill="#4F4F4F"/>
<circle cx="5.9375" cy="5.9375" r="5.9375" transform="matrix(1 0 0 -1 205.05 33.7501)" fill="black"/>
<circle cx="8.4375" cy="8.4375" r="8.4375" transform="matrix(1 0 0 -1 251.3 36.2501)" fill="#4F4F4F"/>
<circle cx="5.9375" cy="5.9375" r="5.9375" transform="matrix(1 0 0 -1 253.8 33.7501)" fill="black"/>
<rect width="53.125" height="11.25" transform="matrix(1 0 0 -1 320.675 50)" fill="#292929"/>
<circle cx="8.4375" cy="8.4375" r="8.4375" transform="matrix(1 0 0 -1 315.675 52.5)" fill="#4F4F4F"/>
<circle cx="5.9375" cy="5.9375" r="5.9375" transform="matrix(1 0 0 -1 318.175 50)" fill="black"/>
<circle cx="8.4375" cy="8.4375" r="8.4375" transform="matrix(1 0 0 -1 364.425 52.5)" fill="#4F4F4F"/>
<circle cx="5.9375" cy="5.9375" r="5.9375" transform="matrix(1 0 0 -1 366.925 50)" fill="black"/>
<rect width="53.125" height="11.25" transform="matrix(1 0 0 -1 433.8 34.375)" fill="#292929"/>
<circle cx="8.4375" cy="8.4375" r="8.4375" transform="matrix(1 0 0 -1 428.8 36.8751)" fill="#4F4F4F"/>
<circle cx="5.9375" cy="5.9375" r="5.9375" transform="matrix(1 0 0 -1 431.3 34.375)" fill="black"/>
<circle cx="8.4375" cy="8.4375" r="8.4375" transform="matrix(1 0 0 -1 477.55 36.8751)" fill="#4F4F4F"/>
<circle cx="5.9375" cy="5.9375" r="5.9375" transform="matrix(1 0 0 -1 480.05 34.375)" fill="black"/>
<rect width="53.125" height="11.25" transform="matrix(1 0 0 -1 546.925 50)" fill="#292929"/>
<circle cx="8.4375" cy="8.4375" r="8.4375" transform="matrix(1 0 0 -1 541.925 52.5)" fill="#4F4F4F"/>
<circle cx="5.9375" cy="5.9375" r="5.9375" transform="matrix(1 0 0 -1 544.425 50)" fill="black"/>
<circle cx="8.4375" cy="8.4375" r="8.4375" transform="matrix(1 0 0 -1 590.675 52.5)" fill="#4F4F4F"/>
<circle cx="5.9375" cy="5.9375" r="5.9375" transform="matrix(1 0 0 -1 593.175 50)" fill="black"/>
<circle cx="7.1875" cy="7.1875" r="7.1875" transform="matrix(1 0 0 -1 21.925 32.4999)" fill="#4F4F4F"/>
<circle cx="5.05787" cy="5.05787" r="5.05787" transform="matrix(1 0 0 -1 24.0549 30.3704)" fill="black"/>
<circle cx="3.46065" cy="3.46065" r="3.46065" transform="matrix(1 0 0 -1 25.6517 28.7732)" fill="#464646"/>
<defs>
<filter id="filter0_d_82_68" x="584.05" y="10.25" width="107.5" height="58.125" filterUnits="userSpaceOnUse" color-interpolation-filters="sRGB">
<feFlood flood-opacity="0" result="BackgroundImageFix"/>
<feColorMatrix in="SourceAlpha" type="matrix" values="0 0 0 0 0 0 0 0 0 0 0 0 0 0 0 0 0 0 127 0" result="hardAlpha"/>
<feOffset dx="4" dy="4"/>
<feGaussianBlur stdDeviation="2.5"/>
<feComposite in2="hardAlpha" operator="out"/>
<feColorMatrix type="matrix" values="0 0 0 0 0 0 0 0 0 0 0 0 0 0 0 0 0 0 0.2 0"/>
<feBlend mode="normal" in2="BackgroundImageFix" result="effect1_dropShadow_82_68"/>
<feBlend mode="normal" in="SourceGraphic" in2="effect1_dropShadow_82_68" result="shape"/>
</filter>
<filter id="filter1_d_82_68" x="15.3002" y="10.25" width="107.5" height="58.125" filterUnits="userSpaceOnUse" color-interpolation-filters="sRGB">
<feFlood flood-opacity="0" result="BackgroundImageFix"/>
<feColorMatrix in="SourceAlpha" type="matrix" values="0 0 0 0 0 0 0 0 0 0 0 0 0 0 0 0 0 0 127 0" result="hardAlpha"/>
<feOffset dx="4" dy="4"/>
<feGaussianBlur stdDeviation="2.5"/>
<feComposite in2="hardAlpha" operator="out"/>
<feColorMatrix type="matrix" values="0 0 0 0 0 0 0 0 0 0 0 0 0 0 0 0 0 0 0.2 0"/>
<feBlend mode="normal" in2="BackgroundImageFix" result="effect1_dropShadow_82_68"/>
<feBlend mode="normal" in="SourceGraphic" in2="effect1_dropShadow_82_68" result="shape"/>
</filter>
<filter id="filter2_d_82_68" x="129.05" y="10.25" width="107.5" height="58.125" filterUnits="userSpaceOnUse" color-interpolation-filters="sRGB">
<feFlood flood-opacity="0" result="BackgroundImageFix"/>
<feColorMatrix in="SourceAlpha" type="matrix" values="0 0 0 0 0 0 0 0 0 0 0 0 0 0 0 0 0 0 127 0" result="hardAlpha"/>
<feOffset dx="4" dy="4"/>
<feGaussianBlur stdDeviation="2.5"/>
<feComposite in2="hardAlpha" operator="out"/>
<feColorMatrix type="matrix" values="0 0 0 0 0 0 0 0 0 0 0 0 0 0 0 0 0 0 0.2 0"/>
<feBlend mode="normal" in2="BackgroundImageFix" result="effect1_dropShadow_82_68"/>
<feBlend mode="normal" in="SourceGraphic" in2="effect1_dropShadow_82_68" result="shape"/>
</filter>
<filter id="filter3_d_82_68" x="242.8" y="10.25" width="107.5" height="58.125" filterUnits="userSpaceOnUse" color-interpolation-filters="sRGB">
<feFlood flood-opacity="0" result="BackgroundImageFix"/>
<feColorMatrix in="SourceAlpha" type="matrix" values="0 0 0 0 0 0 0 0 0 0 0 0 0 0 0 0 0 0 127 0" result="hardAlpha"/>
<feOffset dx="4" dy="4"/>
<feGaussianBlur stdDeviation="2.5"/>
<feComposite in2="hardAlpha" operator="out"/>
<feColorMatrix type="matrix" values="0 0 0 0 0 0 0 0 0 0 0 0 0 0 0 0 0 0 0.2 0"/>
<feBlend mode="normal" in2="BackgroundImageFix" result="effect1_dropShadow_82_68"/>
<feBlend mode="normal" in="SourceGraphic" in2="effect1_dropShadow_82_68" result="shape"/>
</filter>
<filter id="filter4_d_82_68" x="356.55" y="10.25" width="107.5" height="58.125" filterUnits="userSpaceOnUse" color-interpolation-filters="sRGB">
<feFlood flood-opacity="0" result="BackgroundImageFix"/>
<feColorMatrix in="SourceAlpha" type="matrix" values="0 0 0 0 0 0 0 0 0 0 0 0 0 0 0 0 0 0 127 0" result="hardAlpha"/>
<feOffset dx="4" dy="4"/>
<feGaussianBlur stdDeviation="2.5"/>
<feComposite in2="hardAlpha" operator="out"/>
<feColorMatrix type="matrix" values="0 0 0 0 0 0 0 0 0 0 0 0 0 0 0 0 0 0 0.2 0"/>
<feBlend mode="normal" in2="BackgroundImageFix" result="effect1_dropShadow_82_68"/>
<feBlend mode="normal" in="SourceGraphic" in2="effect1_dropShadow_82_68" result="shape"/>
</filter>
<filter id="filter5_d_82_68" x="470.3" y="10.25" width="107.5" height="58.125" filterUnits="userSpaceOnUse" color-interpolation-filters="sRGB">
<feFlood flood-opacity="0" result="BackgroundImageFix"/>
<feColorMatrix in="SourceAlpha" type="matrix" values="0 0 0 0 0 0 0 0 0 0 0 0 0 0 0 0 0 0 127 0" result="hardAlpha"/>
<feOffset dx="4" dy="4"/>
<feGaussianBlur stdDeviation="2.5"/>
<feComposite in2="hardAlpha" operator="out"/>
<feColorMatrix type="matrix" values="0 0 0 0 0 0 0 0 0 0 0 0 0 0 0 0 0 0 0.2 0"/>
<feBlend mode="normal" in2="BackgroundImageFix" result="effect1_dropShadow_82_68"/>
<feBlend mode="normal" in="SourceGraphic" in2="effect1_dropShadow_82_68" result="shape"/>
</filter>
</defs>
</svg>
