<svg width="180" height="570" viewBox="0 0 180 570" fill="none" xmlns="http://www.w3.org/2000/svg">
<path d="M169.001 457V24.5H122.5" stroke="#A70101" stroke-width="7"/>
<path fill-rule="evenodd" clip-rule="evenodd" d="M108.687 420.768C103.08 445.629 97.9485 468.627 92.3414 493.488C95.049 494.056 97.4914 495.176 100.045 497.317C122.99 478.869 146.271 462.989 169.215 444.541C172.294 446.568 173.917 448.471 175.155 451.392C175.702 452.648 176.019 453.349 174.733 454.013C173.74 454.503 172.719 454.614 171.904 454.406C170.624 454.079 169.89 455.008 169.509 455.53C153.34 471.244 137.342 487.745 121.056 503.429C119.736 505.2 119.466 506.743 119.777 508.435C121.322 514.039 118.032 519.152 111.745 517.545C108.136 516.623 105.128 517.715 102.579 520.413C96.4955 530.145 90.2663 539.964 84.1832 549.696C81.2131 549.186 78.129 548.15 74.4059 546.702C78.7077 537.631 82.4894 527.683 85.7137 518.461C83.42 516.759 81.7925 515.847 80.3657 515.606C72.752 522.591 63.2255 533.18 55.6118 540.165C53.3453 538.842 51.1111 536.907 49.64 533.926C55.7529 524.077 64.9675 511.796 70.4736 500.925C71.4449 499.064 70.7591 496.409 68.9906 494.592C65.5402 491.106 65.3303 486.588 72.0686 485.457C74.5187 485.09 76.741 483.674 78.6319 478.7C85.4024 459.965 92.4653 441.057 99.2358 422.323C98.8296 421.971 98.3936 421.735 98.1336 421.297C97.7571 420.829 97.8191 420.1 98.5525 419.171C98.9639 418.532 99.1967 418.592 99.9845 418.421C103.193 418 105.873 418.189 108.229 419.163C109.041 419.867 108.925 419.837 108.687 420.768Z" fill="#DE131B" stroke="black" stroke-width="0.5" stroke-miterlimit="2.6131"/>
<path fill-rule="evenodd" clip-rule="evenodd" d="M106.806 423.76C101.199 448.622 95.5325 473.715 89.9254 498.576C92.6329 499.144 94.9589 500.234 97.5127 502.375C120.544 484.074 144.274 465.951 167.305 447.65C170.414 449.56 172.036 451.463 173.274 454.384C173.735 455.494 174.285 456.254 173.145 456.831C172.122 457.438 170.955 457.636 169.907 457.369C168.626 457.041 167.893 457.97 167.512 458.493C151.343 474.206 135.345 490.708 119.059 506.391C117.739 508.162 117.468 509.706 117.78 511.398C119.325 517.002 116.035 522.114 109.748 520.508C106.139 519.586 103.131 520.678 100.582 523.375C94.4984 533.108 88.2692 542.927 82.1861 552.659C79.216 552.148 75.6662 550.993 71.9134 549.662C76.2152 540.591 80.5518 530.413 83.8925 521.22C81.3906 520.333 79.9093 519.334 78.6907 518.279C71.077 525.264 63.1957 533.296 55.4657 540.251C53.1992 538.928 50.9649 536.993 49.4939 534.013C55.6067 524.164 62.9704 514.759 68.4467 504.004C69.4181 502.143 68.7323 499.488 66.9637 497.671C63.5134 494.185 63.3035 489.667 70.0418 488.536C72.4919 488.169 74.7142 486.753 76.605 481.779C83.3756 463.044 90.4385 444.136 97.209 425.402C96.1637 424.638 95.3215 424.051 96.4093 422.221C96.8503 421.465 96.9668 421.495 97.871 421.354C101.079 420.933 103.759 421.122 106.232 422.125C107.19 422.742 106.928 422.799 106.806 423.76Z" fill="#E30613" stroke="black" stroke-width="0.5" stroke-miterlimit="2.6131"/>
<path fill-rule="evenodd" clip-rule="evenodd" d="M90.7404 498.785C83.1726 496.851 75.6932 500.398 74.0871 506.685C72.4809 512.972 77.3428 519.671 84.9106 521.604C92.4784 523.538 99.9577 519.991 101.564 513.704C103.054 507.387 98.3081 500.718 90.7404 498.785Z" fill="#E63312" stroke="black" stroke-width="0.5" stroke-miterlimit="2.6131"/>
<path fill-rule="evenodd" clip-rule="evenodd" d="M90.3537 500.298C83.4845 498.543 76.6765 501.889 75.1893 507.711C73.7021 513.532 78.0711 519.733 84.9403 521.488C91.8095 523.243 98.6175 519.897 100.105 514.076C101.592 508.254 97.2229 502.053 90.3537 500.298Z" fill="#E30613" stroke="black" stroke-width="0.5" stroke-miterlimit="2.6131"/>
<path fill-rule="evenodd" clip-rule="evenodd" d="M87.3079 508.822C85.678 508.406 84.1296 509.126 83.7727 510.523C83.4157 511.92 84.4287 513.295 86.0587 513.712C87.6887 514.128 89.2371 513.408 89.594 512.011C89.9509 510.613 88.9379 509.238 87.3079 508.822Z" fill="#D8161E" stroke="black" stroke-width="0.5" stroke-miterlimit="2.6131"/>
<path fill-rule="evenodd" clip-rule="evenodd" d="M83.8627 521.337C80.3461 530.732 76.3044 540.242 71.6507 549.719C71.3635 548.902 71.2224 547.998 71.0813 547.093C74.9446 538.282 78.7782 529.588 82.6118 520.893C83.0775 521.012 83.5432 521.131 83.8627 521.337Z" fill="#DC2311" stroke="black" stroke-width="0.5" stroke-miterlimit="2.6131" stroke-linecap="round" stroke-linejoin="round"/>
<path fill-rule="evenodd" clip-rule="evenodd" d="M98.9044 418.765C102.93 418.057 106.339 418.308 108.925 419.837C108.308 420.795 107.691 421.754 107.074 422.713C104.661 421.476 101.778 421.111 98.686 421.562C98.0444 421.646 97.5192 421.76 96.8775 421.844C97.3781 420.856 98.0248 419.781 98.9044 418.765Z" fill="#DC2311" stroke="black" stroke-width="0.5" stroke-miterlimit="2.6131"/>
<path fill-rule="evenodd" clip-rule="evenodd" d="M175.613 452.997C175.306 450.314 172.47 446.365 169.099 444.511C168.569 445.616 167.835 446.545 167.335 447.533C169.747 448.77 171.863 451.171 173.217 454.121C173.448 454.676 173.767 454.882 173.789 456.252C174.377 455.41 175.286 454.278 175.613 452.997Z" fill="#DC2311" stroke="black" stroke-width="0.5" stroke-miterlimit="2.6131"/>
<path d="M99.6884 498.714C96.555 495.929 94.0259 494.663 91.4025 494.737M99.0416 499.789C95.9083 497.004 93.7285 495.827 91.1917 496.047M98.1323 500.921C94.999 498.136 93.488 497.254 90.981 497.358" stroke="black" stroke-width="0.5" stroke-miterlimit="2.6131"/>
<path fill-rule="evenodd" clip-rule="evenodd" d="M75.2489 541.461L71.8589 548.904L71.3465 546.541L74.6446 539.942L75.2489 541.461Z" fill="#C1994B"/>
<path fill-rule="evenodd" clip-rule="evenodd" d="M69.9121 547.787L70.8435 548.025L71.8913 548.292L71.6338 547.358L71.3763 546.425L70.586 547.091L69.9121 547.787Z" fill="#D7B46A"/>
<path fill-rule="evenodd" clip-rule="evenodd" d="M69.9094 548.282L70.9572 548.55L71.8886 548.788L71.6311 547.854L71.4901 546.95L70.6997 547.616L69.9094 548.282Z" fill="#D7B46A"/>
<path fill-rule="evenodd" clip-rule="evenodd" d="M70.11 548.954L71.5666 549.078L71.8589 548.904L71.8317 548.525L71.6907 547.621L70.9003 548.287L70.11 548.954Z" fill="#D7B46A"/>
<path fill-rule="evenodd" clip-rule="evenodd" d="M73.5025 541.015L74.3473 541.106L75.3084 541.228L74.9048 540.381L74.5878 539.679L74.06 540.289L73.5025 541.015Z" fill="#D7B46A"/>
<path fill-rule="evenodd" clip-rule="evenodd" d="M73.6163 541.54L74.4611 541.631L75.3355 541.607L75.0186 540.906L74.7313 540.088L74.1738 540.814L73.6163 541.54Z" fill="#D7B46A"/>
<path fill-rule="evenodd" clip-rule="evenodd" d="M73.9929 542.008L75.2167 542.073L75.4223 541.753L75.3654 541.49L74.9617 540.643L74.5207 541.399L73.9929 542.008Z" fill="#D7B46A"/>
<path fill-rule="evenodd" clip-rule="evenodd" d="M78.661 518.395C71.2233 525.177 62.6162 532.652 55.5524 540.398C56.4566 540.256 56.6325 540.053 57.5368 539.912C64.2462 533.069 72.7071 525.68 79.4165 518.836C79.1267 518.514 78.9508 518.717 78.661 518.395Z" fill="#DC2311" stroke="black" stroke-width="0.5" stroke-miterlimit="2.6131" stroke-linecap="round" stroke-linejoin="round"/>
<path fill-rule="evenodd" clip-rule="evenodd" d="M61.2955 534.423L55.934 539.875L58.1214 539.566L63.2773 534.433L61.2955 534.423Z" fill="#C1994B"/>
<path fill-rule="evenodd" clip-rule="evenodd" d="M62.425 535.828L61.9915 535.097L61.7043 534.28L62.549 534.371L63.2773 534.433L62.8363 535.189L62.425 535.828Z" fill="#D7B46A"/>
<path fill-rule="evenodd" clip-rule="evenodd" d="M62.0458 535.855L61.7289 535.154L61.3252 534.307L62.1699 534.399L63.0146 534.49L62.4572 535.216L62.0458 535.855Z" fill="#D7B46A"/>
<path fill-rule="evenodd" clip-rule="evenodd" d="M61.4637 535.707L61.1196 534.626L61.2955 534.423L61.5581 534.366L62.2864 534.428L61.8751 535.068L61.4637 535.707Z" fill="#D7B46A"/>
<path fill-rule="evenodd" clip-rule="evenodd" d="M57.1527 540.93L56.8059 540.346L56.4889 539.645L57.247 539.59L58.1215 539.566L57.5937 540.175L57.1527 540.93Z" fill="#D7B46A"/>
<path fill-rule="evenodd" clip-rule="evenodd" d="M56.7438 541.074L56.4268 540.373L56.1098 539.672L56.8678 539.618L57.7423 539.593L57.3013 540.348L56.7438 541.074Z" fill="#D7B46A"/>
<path fill-rule="evenodd" clip-rule="evenodd" d="M56.1319 541.042L55.7878 539.962L55.9637 539.759L56.256 539.585L57.1305 539.561L56.6894 540.316L56.1319 541.042Z" fill="#D7B46A"/>
<path fill-rule="evenodd" clip-rule="evenodd" d="M135.575 29.3605C110.154 31.1713 86.6534 32.8998 61.2323 34.7106C61.4707 37.4667 61.1036 40.1285 59.7915 43.1917C84.0787 59.8318 106.006 77.5352 130.293 94.1753C129.242 97.7084 127.888 99.8111 125.449 101.84C124.405 102.727 123.825 103.233 122.819 102.193C122.062 101.384 121.661 100.439 121.625 99.5983C121.568 98.2777 120.467 97.8438 119.857 97.6294C100.144 86.6869 79.7255 76.1354 60.0073 65.0728C57.9303 64.3198 56.3748 64.5067 54.8449 65.2939C49.926 68.3913 44.081 66.7173 43.8032 60.2343C43.6438 56.5125 41.7298 53.9485 38.4111 52.2865C27.3368 49.2729 16.1373 46.1445 5.06301 43.1309C4.6943 40.1398 4.79554 36.888 5.10603 32.9055C15.0329 34.4047 25.6493 35.1526 35.4099 35.5763C36.3772 32.8888 36.7803 31.0674 36.5985 29.6319C27.7127 24.3596 14.8239 18.2965 5.93811 13.0242C6.55044 10.4722 7.75789 7.77439 10.1865 5.50536C21.3808 8.51377 35.7995 13.7896 47.7982 15.9216C49.8598 16.3144 52.2043 14.8909 53.4324 12.6733C55.7735 8.3633 60.039 6.85751 63.0677 12.9821C64.1259 15.2221 66.124 16.9406 71.4322 17.3146C91.3237 18.3868 111.466 19.6888 131.357 20.761C131.577 20.2705 131.676 19.7851 132.021 19.4095C132.361 18.9138 133.076 18.7629 134.177 19.1968C134.908 19.4061 134.918 19.6462 135.309 20.3511C136.638 23.3011 137.231 25.9218 136.979 28.4584C136.54 29.4394 136.535 29.3193 135.575 29.3605Z" fill="#DE131B" stroke="black" stroke-width="0.5" stroke-miterlimit="2.6131"/>
<path fill-rule="evenodd" clip-rule="evenodd" d="M132.167 28.424C106.746 30.2348 81.0845 32.0559 55.6634 33.8666C55.9017 36.6228 55.5295 39.1646 54.2174 42.2277C78.3897 58.993 102.593 76.4787 126.765 93.244C125.834 96.7719 124.48 98.8746 122.042 100.904C121.112 101.665 120.543 102.411 119.661 101.487C118.785 100.682 118.258 99.6223 118.212 98.5418C118.155 97.2212 117.054 96.7872 116.444 96.5728C96.7305 85.6303 76.3125 75.0788 56.5943 64.0162C54.5173 63.2633 52.9617 63.4502 51.4318 64.2374C46.5129 67.3348 40.6679 65.6608 40.3902 59.1777C40.2307 55.456 38.3167 52.8919 34.998 51.2299C23.9238 48.2164 12.7243 45.0879 1.64997 42.0743C1.28127 39.0832 1.36192 35.3512 1.55236 31.3739C11.4793 32.873 22.4764 34.0857 32.2421 34.6296C32.3691 31.978 32.8973 30.2715 33.556 28.8C24.6701 23.5277 14.7038 18.3017 5.81288 12.9093C6.42521 10.3573 7.63266 7.65946 10.0613 5.39043C21.2556 8.39884 32.3865 12.733 44.2652 14.8702C46.3267 15.263 48.6712 13.8395 49.8993 11.6219C52.2404 7.3119 56.5059 5.8061 59.5346 11.9307C60.5928 14.1706 62.5909 15.8892 67.8991 16.2632C87.7906 17.3353 107.933 18.6374 127.824 19.7096C128.253 18.4884 128.572 17.5125 130.639 18.0254C131.489 18.2295 131.495 18.3495 131.891 19.1745C133.22 22.1245 133.813 24.7451 133.566 27.4018C133.252 28.4977 133.122 28.2628 132.167 28.424Z" fill="#E30613" stroke="black" stroke-width="0.5" stroke-miterlimit="2.6131"/>
<path fill-rule="evenodd" clip-rule="evenodd" d="M55.6993 34.7071C55.365 26.9035 49.8099 20.7668 43.3269 21.0446C36.8438 21.3223 31.834 27.9116 32.1683 35.7153C32.5026 43.519 38.0577 49.6556 44.5408 49.3779C51.0187 48.98 56.0337 42.5108 55.6993 34.7071Z" fill="#E63312" stroke="black" stroke-width="0.5" stroke-miterlimit="2.6131"/>
<path fill-rule="evenodd" clip-rule="evenodd" d="M54.1386 34.774C53.8351 27.6906 48.6659 22.1388 42.6631 22.396C36.6603 22.6532 31.9849 28.6268 32.2883 35.7101C32.5918 42.7934 37.761 48.3453 43.7638 48.0881C49.7666 47.8309 54.4421 41.8573 54.1386 34.774Z" fill="#E30613" stroke="black" stroke-width="0.5" stroke-miterlimit="2.6131"/>
<path fill-rule="evenodd" clip-rule="evenodd" d="M45.0985 34.3193C45.0264 32.6385 43.8894 31.3642 42.4487 31.4259C41.008 31.4876 39.9841 32.8545 40.0561 34.5353C40.1281 36.2161 41.2652 37.4904 42.7059 37.4287C44.1465 37.367 45.1705 36.0001 45.0985 34.3193Z" fill="#D8161E" stroke="black" stroke-width="0.5" stroke-miterlimit="2.6131"/>
<path fill-rule="evenodd" clip-rule="evenodd" d="M32.1221 34.6348C22.1112 33.9812 11.8395 32.8577 1.42209 31.139C2.12185 30.6279 2.94681 30.2318 3.77178 29.8356C13.3231 30.99 22.7543 32.1495 32.1856 33.309C32.2062 33.7892 32.2268 34.2695 32.1221 34.6348Z" fill="#DC2311" stroke="black" stroke-width="0.5" stroke-miterlimit="2.6131" stroke-linecap="round" stroke-linejoin="round"/>
<path fill-rule="evenodd" clip-rule="evenodd" d="M134.667 19.4164C136.508 23.0662 137.252 26.402 136.535 29.3194C135.439 29.0055 134.343 28.6916 133.247 28.3778C133.734 25.7108 133.251 22.8449 131.927 20.015C131.661 19.425 131.4 18.955 131.134 18.365C132.225 18.5589 133.441 18.8676 134.667 19.4164Z" fill="#DC2311" stroke="black" stroke-width="0.5" stroke-miterlimit="2.6131"/>
<path fill-rule="evenodd" clip-rule="evenodd" d="M124.045 102.742C126.525 101.674 129.487 97.8183 130.288 94.0554C129.077 93.8667 127.976 93.4328 126.885 93.239C126.398 95.9059 124.71 98.6243 122.277 100.773C121.812 101.154 121.707 101.519 120.402 101.936C121.378 102.255 122.724 102.799 124.045 102.742Z" fill="#DC2311" stroke="black" stroke-width="0.5" stroke-miterlimit="2.6131"/>
<path d="M58.3509 43.2535C60.1123 39.4494 60.5943 36.6624 59.766 34.1721M57.1349 42.9447C58.8963 39.1407 59.3937 36.7139 58.4505 34.3487M55.7886 42.401C57.55 38.597 57.9582 36.8956 57.135 34.5254" stroke="black" stroke-width="0.5" stroke-miterlimit="2.6131"/>
<path fill-rule="evenodd" clip-rule="evenodd" d="M10.3679 32.199L2.26237 31.103L4.37708 29.9299L11.6473 31.182L10.3679 32.199Z" fill="#C1994B"/>
<path fill-rule="evenodd" clip-rule="evenodd" d="M2.77011 28.9162L2.81126 29.8766L2.85755 30.9571L3.67737 30.4409L4.49718 29.9247L3.63107 29.3604L2.77011 28.9162Z" fill="#D7B46A"/>
<path fill-rule="evenodd" clip-rule="evenodd" d="M2.295 29.0568L2.34129 30.1373L2.38244 31.0978L3.20226 30.5815L4.02723 30.1854L3.16111 29.6211L2.295 29.0568Z" fill="#D7B46A"/>
<path fill-rule="evenodd" clip-rule="evenodd" d="M1.71021 29.4427L2.01204 30.8731L2.26245 31.103L2.61747 30.9675L3.44244 30.5713L2.57632 30.007L1.71021 29.4427Z" fill="#D7B46A"/>
<path fill-rule="evenodd" clip-rule="evenodd" d="M10.2908 30.3981L10.4469 31.2334L10.6081 32.1887L11.3027 31.5575L11.8824 31.0516L11.1466 30.7223L10.2908 30.3981Z" fill="#D7B46A"/>
<path fill-rule="evenodd" clip-rule="evenodd" d="M9.82093 30.6588L9.97699 31.4941L10.2531 32.3242L10.8328 31.8182L11.5326 31.3071L10.6768 30.983L9.82093 30.6588Z" fill="#D7B46A"/>
<path fill-rule="evenodd" clip-rule="evenodd" d="M9.4812 31.1546L9.77275 32.3448L10.1381 32.4495L10.373 32.3191L11.0676 31.688L10.217 31.4839L9.4812 31.1546Z" fill="#D7B46A"/>
<path fill-rule="evenodd" clip-rule="evenodd" d="M33.4359 28.8052C24.7954 23.6427 15.1532 17.5609 5.698 13.0346C6.09417 13.8596 6.33942 13.9694 6.73559 14.7943C15.2252 19.2417 24.7422 25.2086 33.2318 29.6559C33.4565 29.2855 33.2112 29.1757 33.4359 28.8052Z" fill="#DC2311" stroke="black" stroke-width="0.5" stroke-miterlimit="2.6131" stroke-linecap="round" stroke-linejoin="round"/>
<path fill-rule="evenodd" clip-rule="evenodd" d="M13.0763 16.8078L6.30858 13.2489L7.23642 15.2539L13.6388 18.7081L13.0763 16.8078Z" fill="#C1994B"/>
<path fill-rule="evenodd" clip-rule="evenodd" d="M12.0575 18.2948L12.6321 17.6688L13.3318 17.1577L13.4879 17.9929L13.6388 18.7081L12.7881 18.504L12.0575 18.2948Z" fill="#D7B46A"/>
<path fill-rule="evenodd" clip-rule="evenodd" d="M11.922 17.9397L12.5017 17.4338L13.1963 16.8027L13.3524 17.6379L13.5084 18.4731L12.6526 18.149L11.922 17.9397Z" fill="#D7B46A"/>
<path fill-rule="evenodd" clip-rule="evenodd" d="M11.8962 17.3396L12.8309 16.6981L13.0762 16.8079L13.2065 17.0429L13.3574 17.7581L12.6268 17.5488L11.8962 17.3396Z" fill="#D7B46A"/>
<path fill-rule="evenodd" clip-rule="evenodd" d="M5.65 14.7205L6.10965 14.2197L6.68936 13.7137L6.96034 14.4238L7.23645 15.2539L6.50068 14.9246L5.65 14.7205Z" fill="#D7B46A"/>
<path fill-rule="evenodd" clip-rule="evenodd" d="M5.39432 14.3705L5.97403 13.8646L6.55374 13.3586L6.82471 14.0687L7.10083 14.8988L6.25014 14.6947L5.39432 14.3705Z" fill="#D7B46A"/>
<path fill-rule="evenodd" clip-rule="evenodd" d="M5.24857 13.7754L6.1833 13.134L6.42856 13.2438L6.67895 13.4736L6.95508 14.3037L6.10439 14.0996L5.24857 13.7754Z" fill="#D7B46A"/>
</svg>
