<svg width="716" height="1228" viewBox="0 0 716 1228" fill="none" xmlns="http://www.w3.org/2000/svg">
<g filter="url(#filter0_d_108_73)">
<path d="M118.891 1126.79C118.891 1137.91 117.402 1147.54 114.425 1155.68C111.448 1163.81 107.28 1170.96 101.922 1177.12C96.5632 1183.27 90.3115 1188.63 83.1666 1193.2C76.0218 1197.76 68.2816 1202.03 59.946 1206L40 1172.95C47.5418 1168.98 53.2973 1165.01 57.2667 1161.04C61.4345 1157.26 64.4115 1153.39 66.1977 1149.42C68.1823 1145.65 69.2739 1141.98 69.4724 1138.4C69.8693 1134.63 70.0678 1130.96 70.0678 1127.39V938H118.891V1126.79Z" fill="#FF0000"/>
<path d="M232.715 990.111H279.752V1067.83C279.752 1079.74 280.545 1089.67 282.133 1097.61C283.721 1105.55 285.606 1111.9 287.789 1116.67C290.171 1122.42 292.95 1126.89 296.125 1130.07L258.317 1141.98C256.531 1140.19 254.745 1137.91 252.958 1135.13C251.371 1132.95 249.783 1130.17 248.195 1126.79C246.608 1123.22 245.317 1119.15 244.325 1114.58C239.165 1123.91 232.02 1130.76 222.891 1135.13C213.96 1139.3 204.235 1141.38 193.716 1141.38C185.976 1141.38 179.327 1140.19 173.77 1137.81C168.411 1135.23 163.946 1131.75 160.373 1127.39C157 1122.82 154.519 1117.36 152.931 1111.01C151.542 1104.66 150.847 1097.51 150.847 1089.57V990.111H198.182V1083.32C198.182 1090.26 198.975 1095.92 200.563 1100.29C202.349 1104.46 205.525 1106.54 210.09 1106.54C215.647 1106.54 220.807 1102.87 225.57 1095.52C230.333 1087.98 232.715 1077.66 232.715 1064.56V990.111Z" fill="#FF0000"/>
<path d="M475.829 1139.6V1046.69C475.829 1039.74 475.234 1034.18 474.043 1030.01C472.852 1025.65 470.173 1023.46 466.005 1023.46C461.242 1023.46 456.777 1026.94 452.609 1033.88C448.441 1040.63 446.357 1049.67 446.357 1060.98V1139.6H399.023V1046.69C399.023 1039.74 398.427 1034.18 397.236 1030.01C396.244 1025.65 393.565 1023.46 389.198 1023.46C384.237 1023.46 379.672 1027.04 375.504 1034.18C371.535 1041.13 369.55 1050.56 369.55 1062.47V1139.6H322.513V1062.17C322.513 1050.26 321.62 1040.44 319.834 1032.69C318.246 1024.75 316.361 1018.3 314.178 1013.34C311.796 1007.78 309.117 1003.31 306.14 999.938L343.948 988.027C345.536 990.012 347.223 992.295 349.009 994.876C350.597 997.059 352.085 999.938 353.474 1003.51C355.062 1006.89 356.451 1010.76 357.642 1015.12C362.405 1005.79 368.955 998.945 377.29 994.578C385.824 990.21 395.252 988.027 405.572 988.027C414.305 988.027 421.35 989.813 426.709 993.387C432.266 996.761 436.731 1001.72 440.105 1008.28C445.265 1001.13 451.418 995.967 458.563 992.791C465.708 989.615 473.646 988.027 482.379 988.027C490.119 988.027 496.569 989.317 501.729 991.898C506.89 994.28 510.958 997.754 513.935 1002.32C517.111 1006.69 519.393 1012.15 520.782 1018.7C522.172 1025.05 522.866 1032.1 522.866 1039.84V1139.6H475.829Z" fill="#FF0000"/>
<path d="M560.035 1205.4V1062.17C560.035 1050.26 559.141 1040.44 557.355 1032.69C555.768 1024.75 553.882 1018.3 551.699 1013.34C549.317 1007.78 546.638 1003.31 543.661 999.938L581.469 988.027C583.851 990.409 586.034 993.287 588.018 996.662C589.606 999.441 591.194 1003.01 592.782 1007.38C594.369 1011.55 595.56 1016.41 596.354 1021.97C600.125 1010.66 605.285 1002.22 611.835 996.662C618.582 990.905 627.315 988.027 638.032 988.027C647.36 988.027 655.497 989.813 662.444 993.387C669.589 996.96 675.443 1002.02 680.008 1008.57C684.771 1014.93 688.244 1022.67 690.428 1031.8C692.809 1040.93 694 1051.16 694 1062.47C694 1073.59 692.214 1084.01 688.641 1093.74C685.069 1103.27 680.008 1111.6 673.459 1118.75C667.108 1125.7 659.566 1131.26 650.833 1135.43C642.101 1139.4 632.674 1141.38 622.552 1141.38C616.995 1141.38 611.835 1140.79 607.071 1139.6V1197.36L560.035 1205.4ZM628.803 1022.57C625.826 1022.57 622.949 1023.86 620.17 1026.44C617.59 1028.82 615.308 1032.1 613.323 1036.27C611.338 1040.24 609.751 1045 608.56 1050.56C607.567 1055.92 607.071 1061.58 607.071 1067.53V1104.76C608.461 1105.15 610.346 1105.65 612.728 1106.24C615.109 1106.64 617.292 1106.84 619.277 1106.84C624.04 1106.84 628.01 1105.85 631.185 1103.86C634.361 1101.68 636.841 1098.8 638.628 1095.23C640.612 1091.45 642.002 1087.09 642.795 1082.12C643.589 1076.96 643.986 1071.4 643.986 1065.45C643.986 1059.89 643.887 1054.53 643.689 1049.37C643.49 1044.21 642.795 1039.64 641.605 1035.67C640.612 1031.7 639.124 1028.52 637.139 1026.14C635.154 1023.76 632.376 1022.57 628.803 1022.57Z" fill="#FF0000"/>
</g>
<path d="M79 804.5V154" stroke="#A70101" stroke-width="7"/>
<path fill-rule="evenodd" clip-rule="evenodd" d="M15.4129 825.091C29.9304 846.038 43.3979 865.373 57.9154 886.32C60.165 884.71 62.642 883.668 65.9461 883.236C67.8798 853.858 71.9314 825.969 73.8651 796.592C77.4406 795.695 79.9394 795.788 82.9282 796.852C84.2235 797.298 84.9543 797.539 84.5734 798.935C84.2626 799.998 83.6542 800.825 82.9495 801.285C81.8423 802.007 82.0303 803.175 82.1571 803.81C82.7931 826.347 84.1249 849.292 84.6602 871.895C85.0713 874.066 86.0252 875.308 87.4823 876.223C92.6546 878.876 94.1943 884.758 88.7586 888.302C85.6381 890.336 84.408 893.29 84.6701 896.992C87.7233 908.056 90.7414 919.286 93.7945 930.349C91.4093 932.191 88.5602 933.762 84.9758 935.525C81.2047 926.221 76.4359 916.706 71.8245 908.093C69.0193 908.631 67.2469 909.213 66.1045 910.101C66.0988 920.433 67.4536 934.612 67.4479 944.945C64.9402 945.719 62.0038 946.055 58.8136 945.123C55.6948 933.959 52.8829 918.865 48.6001 907.456C47.887 905.482 45.4671 904.191 42.9333 904.265C38.0319 904.448 34.562 901.546 38.2869 895.818C39.6744 893.766 40.1342 891.171 37.7498 886.413C28.5315 868.754 19.3831 850.762 10.1648 833.103C9.63087 833.164 9.16259 833.326 8.66372 833.221C8.06419 833.182 7.56975 832.643 7.38172 831.475C7.18926 830.74 7.39058 830.608 7.79766 829.913C9.65789 827.265 11.6099 825.419 13.9207 824.343C14.9885 824.22 14.8878 824.286 15.4129 825.091Z" fill="#DE131B" stroke="black" stroke-width="0.5" stroke-miterlimit="2.6131"/>
<path fill-rule="evenodd" clip-rule="evenodd" d="M16.3446 828.5C30.8622 849.447 45.5109 870.594 60.0285 891.541C62.278 889.931 64.6544 888.955 67.9585 888.522C70.0585 859.18 72.7625 829.444 74.8625 800.102C78.3724 799.105 80.8712 799.197 83.86 800.261C84.989 800.672 85.9211 800.782 85.5752 802.011C85.33 803.175 84.6866 804.169 83.7806 804.759C82.6734 805.481 82.8614 806.65 82.9882 807.284C83.6242 829.822 84.956 852.766 85.4913 875.37C85.9024 877.54 86.8562 878.783 88.3134 879.698C93.4857 882.351 95.0254 888.233 89.5897 891.777C86.4692 893.811 85.2391 896.765 85.5012 900.467C88.5543 911.531 91.5725 922.76 94.6256 933.824C92.2404 935.666 88.9886 937.499 85.4699 939.363C81.6988 930.059 77.1357 919.98 72.625 911.301C70.2792 912.544 68.5418 912.959 66.9401 913.143C66.9343 923.475 67.5193 934.713 67.4129 945.111C64.9053 945.885 61.9688 946.222 58.7787 945.289C55.6599 934.125 53.714 922.34 49.4968 911.031C48.7837 909.057 46.3639 907.766 43.83 907.84C38.9287 908.023 35.4587 905.121 39.1836 899.393C40.5711 897.341 41.031 894.746 38.6465 889.989C29.4282 872.33 20.2799 854.338 11.0615 836.679C9.79237 836.932 8.79019 837.155 8.17778 835.116C7.91969 834.28 8.02036 834.215 8.52809 833.453C10.3883 830.806 12.3403 828.959 14.7518 827.817C15.8546 827.529 15.7189 827.761 16.3446 828.5Z" fill="#E30613" stroke="black" stroke-width="0.5" stroke-miterlimit="2.6131"/>
<path fill-rule="evenodd" clip-rule="evenodd" d="M60.7331 891.081C54.1901 895.347 51.7428 903.255 55.2868 908.691C58.8308 914.126 67.0536 915.077 73.5965 910.811C80.1395 906.545 82.5868 898.638 79.0428 893.202C75.3981 887.832 67.276 886.816 60.7331 891.081Z" fill="#E63312" stroke="black" stroke-width="0.5" stroke-miterlimit="2.6131"/>
<path fill-rule="evenodd" clip-rule="evenodd" d="M61.5863 892.39C55.6473 896.262 53.5064 903.54 56.7879 908.573C60.0694 913.606 67.592 914.583 73.531 910.71C79.47 906.838 81.6109 899.561 78.3294 894.528C75.0479 889.495 67.5253 888.518 61.5863 892.39Z" fill="#E30613" stroke="black" stroke-width="0.5" stroke-miterlimit="2.6131"/>
<path fill-rule="evenodd" clip-rule="evenodd" d="M65.8039 900.399C64.3946 901.318 63.878 902.946 64.6656 904.154C65.4532 905.362 67.1511 905.546 68.5604 904.627C69.9696 903.708 70.4862 902.08 69.6987 900.872C68.9111 899.664 67.2132 899.48 65.8039 900.399Z" fill="#D8161E" stroke="black" stroke-width="0.5" stroke-miterlimit="2.6131"/>
<path fill-rule="evenodd" clip-rule="evenodd" d="M72.6905 911.402C77.2318 920.347 81.5018 929.757 85.3341 939.595C84.5377 939.253 83.7763 938.746 83.0149 938.238C79.1387 929.432 75.3282 920.728 71.5176 912.023C71.9203 911.76 72.3229 911.498 72.6905 911.402Z" fill="#DC2311" stroke="black" stroke-width="0.5" stroke-miterlimit="2.6131" stroke-linecap="round" stroke-linejoin="round"/>
<path fill-rule="evenodd" clip-rule="evenodd" d="M7.32049 830.941C9.52217 827.497 12.0125 825.156 14.8878 824.286C15.1765 825.389 15.4652 826.491 15.7539 827.594C13.2112 828.535 10.9922 830.412 9.23262 832.994C8.86058 833.523 8.5892 833.987 8.21715 834.517C7.8278 833.479 7.47349 832.276 7.32049 830.941Z" fill="#DC2311" stroke="black" stroke-width="0.5" stroke-miterlimit="2.6131"/>
<path fill-rule="evenodd" clip-rule="evenodd" d="M84.4204 797.6C82.2369 796.011 77.41 795.428 73.7645 796.658C74.2195 797.796 74.4075 798.964 74.7969 800.001C77.3396 799.061 80.5385 799.127 83.628 800.125C84.1925 800.331 84.5601 800.234 85.5841 801.145C85.361 800.143 85.1424 798.707 84.4204 797.6Z" fill="#DC2311" stroke="black" stroke-width="0.5" stroke-miterlimit="2.6131"/>
<path d="M66.7338 884.444C62.5632 884.867 59.9199 885.874 58.1998 887.856M67.0881 885.647C62.9175 886.071 60.5762 886.88 59.0223 888.897M67.3067 887.082C63.1362 887.506 61.4644 888.023 59.8449 889.939" stroke="black" stroke-width="0.5" stroke-miterlimit="2.6131"/>
<path fill-rule="evenodd" clip-rule="evenodd" d="M81.6854 931.358L84.8747 938.89L82.7874 937.669L80.1582 930.776L81.6854 931.358Z" fill="#C1994B"/>
<path fill-rule="evenodd" clip-rule="evenodd" d="M82.7347 939.568L83.54 939.043L84.4459 938.452L83.5839 938.01L82.7218 937.568L82.6779 938.601L82.7347 939.568Z" fill="#D7B46A"/>
<path fill-rule="evenodd" clip-rule="evenodd" d="M83.0978 939.905L84.0038 939.315L84.8091 938.79L83.947 938.348L83.1856 937.84L83.1417 938.873L83.0978 939.905Z" fill="#D7B46A"/>
<path fill-rule="evenodd" clip-rule="evenodd" d="M83.7279 940.212L84.8046 939.223L84.8747 938.89L84.5771 938.654L83.8157 938.146L83.7718 939.179L83.7279 940.212Z" fill="#D7B46A"/>
<path fill-rule="evenodd" clip-rule="evenodd" d="M80.1755 932.343L80.8145 931.783L81.5542 931.157L80.6571 930.881L79.9263 930.64L80.0181 931.441L80.1755 932.343Z" fill="#D7B46A"/>
<path fill-rule="evenodd" clip-rule="evenodd" d="M80.6393 932.614L81.2783 932.054L81.8517 931.393L81.1209 931.153L80.3245 930.811L80.4819 931.713L80.6393 932.614Z" fill="#D7B46A"/>
<path fill-rule="evenodd" clip-rule="evenodd" d="M81.239 932.654L82.1143 931.796L82.0181 931.428L81.7862 931.293L80.8891 931.017L81.1472 931.853L81.239 932.654Z" fill="#D7B46A"/>
<path fill-rule="evenodd" clip-rule="evenodd" d="M67.0057 913.243C66.9694 923.309 66.6528 934.704 67.5792 945.146C68.087 944.385 68.0564 944.118 68.5641 943.356C68.0621 933.785 68.3436 922.556 67.8416 912.985C67.4083 912.981 67.4389 913.248 67.0057 913.243Z" fill="#DC2311" stroke="black" stroke-width="0.5" stroke-miterlimit="2.6131" stroke-linecap="round" stroke-linejoin="round"/>
<path fill-rule="evenodd" clip-rule="evenodd" d="M67.0638 936.875L67.4523 944.511L68.7041 942.691L68.4119 935.422L67.0638 936.875Z" fill="#C1994B"/>
<path fill-rule="evenodd" clip-rule="evenodd" d="M68.8624 936.993L68.0309 936.818L67.2345 936.477L67.8735 935.917L68.4119 935.422L68.6699 936.258L68.8624 936.993Z" fill="#D7B46A"/>
<path fill-rule="evenodd" clip-rule="evenodd" d="M68.6261 937.291L67.8953 937.05L66.9983 936.774L67.6372 936.214L68.2762 935.654L68.4337 936.556L68.6261 937.291Z" fill="#D7B46A"/>
<path fill-rule="evenodd" clip-rule="evenodd" d="M68.1228 937.619L67.0945 937.142L67.0639 936.875L67.1996 936.643L67.7379 936.148L67.9304 936.884L68.1228 937.619Z" fill="#D7B46A"/>
<path fill-rule="evenodd" clip-rule="evenodd" d="M69.0541 944.328L68.3889 944.188L67.6581 943.947L68.1308 943.352L68.7042 942.691L68.796 943.492L69.0541 944.328Z" fill="#D7B46A"/>
<path fill-rule="evenodd" clip-rule="evenodd" d="M68.8834 944.726L68.1526 944.485L67.4218 944.244L67.8945 943.649L68.4679 942.989L68.726 943.824L68.8834 944.726Z" fill="#D7B46A"/>
<path fill-rule="evenodd" clip-rule="evenodd" d="M68.4457 945.155L67.4173 944.678L67.3867 944.411L67.4568 944.078L68.0302 943.417L68.2882 944.253L68.4457 945.155Z" fill="#D7B46A"/>
<path fill-rule="evenodd" clip-rule="evenodd" d="M16.0534 127.427C31.0682 106.834 44.9947 87.8265 60.0095 67.2337C62.2199 68.8972 64.6714 69.9974 67.9641 70.5092C69.194 99.9243 72.5768 127.902 73.8066 157.317C77.3596 158.299 79.8599 158.267 82.8733 157.275C84.1789 156.86 84.9153 156.636 84.5679 155.232C84.2826 154.161 83.6942 153.32 83.0007 152.844C81.9111 152.096 82.127 150.932 82.269 150.301C83.4444 127.785 85.3251 104.879 86.4014 82.2947C86.8643 80.1345 87.8477 78.9147 89.3263 78.0351C94.5606 75.507 96.2407 69.6637 90.8914 65.9906C87.8205 63.8819 86.6615 60.8996 87.0121 57.2046C90.3293 46.2174 93.6154 35.0632 96.9325 24.076C94.592 22.1773 91.7813 20.5389 88.2402 18.6904C84.2475 27.9018 79.2522 37.2994 74.4359 45.7995C71.6444 45.1946 69.8864 44.5705 68.7657 43.6552C69.0073 33.3258 70.7012 19.1832 70.9428 8.85383C68.4544 8.01976 65.5269 7.61296 62.3153 8.46887C58.9301 19.5551 55.7577 34.5773 51.2029 45.8809C50.4428 47.837 47.9927 49.07 45.4614 48.9353C40.5658 48.6348 37.0274 51.4528 40.6141 57.2683C41.9521 59.3532 42.3496 61.9585 39.852 66.6573C30.2135 84.0907 20.6371 101.858 10.9986 119.292C10.4663 119.218 10.002 119.045 9.50081 119.138C8.9005 119.163 8.39331 119.689 8.17736 120.853C7.96736 121.583 8.16548 121.719 8.55579 122.425C10.3521 125.116 12.2594 127.009 14.5437 128.14C15.6083 128.288 15.5092 128.22 16.0534 127.427Z" fill="#DE131B" stroke="black" stroke-width="0.5" stroke-miterlimit="2.6131"/>
<path fill-rule="evenodd" clip-rule="evenodd" d="M17.0665 124.041C32.0813 103.448 47.2322 82.6575 62.247 62.0646C64.4574 63.7282 66.8098 64.7604 70.1026 65.2722C71.4995 94.6562 73.4908 124.448 74.8878 153.832C78.3727 154.913 80.873 154.881 83.8864 153.889C85.025 153.505 85.9594 153.418 85.6431 152.18C85.4258 151.01 84.8064 150.002 83.9148 149.39C82.8251 148.642 83.0411 147.478 83.1831 146.847C84.3584 124.331 86.2391 101.425 87.3154 78.8407C87.7784 76.6805 88.7617 75.4608 90.2403 74.5811C95.4747 72.053 97.1547 66.2098 91.8054 62.5366C88.7345 60.428 87.5755 57.4456 87.9262 53.7506C91.2433 42.7635 94.5294 31.6092 97.8465 20.622C95.5061 18.7234 92.2991 16.8128 88.826 14.8653C84.8333 24.0767 80.0302 34.0435 75.313 42.6117C72.9976 41.3133 71.2707 40.8563 69.6738 40.6345C69.9154 30.3051 70.7693 19.0841 70.9119 8.68671C68.4235 7.85264 65.4959 7.44584 62.2843 8.30175C58.8992 19.388 56.6717 31.1234 52.185 42.3278C51.4249 44.284 48.9748 45.517 46.4435 45.3823C41.5479 45.0818 38.0094 47.8998 41.5961 53.7153C42.9341 55.8001 43.3317 58.4054 40.8341 63.1042C31.1956 80.5377 21.6192 98.3052 11.9807 115.739C10.718 115.455 9.72144 115.208 9.06038 117.232C8.78236 118.061 8.88142 118.129 9.37079 118.903C11.1671 121.594 13.0744 123.487 15.4578 124.686C16.5534 125.001 16.4233 124.766 17.0665 124.041Z" fill="#E30613" stroke="black" stroke-width="0.5" stroke-miterlimit="2.6131"/>
<path fill-rule="evenodd" clip-rule="evenodd" d="M62.9404 62.5408C56.5015 58.1194 54.2441 50.1556 57.9173 44.8063C61.5904 39.457 69.8336 38.7034 76.2726 43.1248C82.7115 47.5462 84.9688 55.51 81.2957 60.8593C77.5235 66.1406 69.3794 66.9621 62.9404 62.5408Z" fill="#E63312" stroke="black" stroke-width="0.5" stroke-miterlimit="2.6131"/>
<path fill-rule="evenodd" clip-rule="evenodd" d="M63.8247 61.253C57.98 57.2398 56.014 49.9132 59.415 44.9602C62.8161 40.0071 70.3599 39.2106 76.2045 43.2239C82.0491 47.2371 84.0152 54.5636 80.6141 59.5167C77.2131 64.4697 69.6693 65.2662 63.8247 61.253Z" fill="#E30613" stroke="black" stroke-width="0.5" stroke-miterlimit="2.6131"/>
<path fill-rule="evenodd" clip-rule="evenodd" d="M68.2328 53.3473C66.846 52.395 66.3685 50.7552 67.1847 49.5665C68.001 48.3778 69.7029 48.2345 71.0897 49.1868C72.4766 50.139 72.954 51.7788 72.1378 52.9676C71.3215 54.1563 69.6197 54.2996 68.2328 53.3473Z" fill="#D8161E" stroke="black" stroke-width="0.5" stroke-miterlimit="2.6131"/>
<path fill-rule="evenodd" clip-rule="evenodd" d="M75.381 42.5126C80.1352 33.6784 84.6292 24.3739 88.6959 14.6303C87.8915 14.9526 87.1182 15.4419 86.3449 15.9313C82.259 24.6414 78.2412 33.2524 74.2233 41.8635C74.6196 42.1355 75.0158 42.4076 75.381 42.5126Z" fill="#DC2311" stroke="black" stroke-width="0.5" stroke-miterlimit="2.6131" stroke-linecap="round" stroke-linejoin="round"/>
<path fill-rule="evenodd" clip-rule="evenodd" d="M8.10339 121.385C10.222 124.881 12.6556 127.281 15.5092 128.22C15.8242 127.124 16.1392 126.028 16.4542 124.933C13.9348 123.932 11.7614 122.002 10.0641 119.379C9.70485 118.841 9.44466 118.37 9.08539 117.832C8.67132 118.86 8.2883 120.055 8.10339 121.385Z" fill="#DC2311" stroke="black" stroke-width="0.5" stroke-miterlimit="2.6131"/>
<path fill-rule="evenodd" clip-rule="evenodd" d="M84.3831 156.563C82.1622 158.099 77.3228 158.566 73.7077 157.249C74.1898 156.123 74.4057 154.959 74.8198 153.932C77.3392 154.933 80.5389 154.943 83.6514 154.019C84.2206 153.827 84.5859 153.932 85.6313 153.047C85.3843 154.043 85.1314 155.473 84.3831 156.563Z" fill="#DC2311" stroke="black" stroke-width="0.5" stroke-miterlimit="2.6131"/>
<path d="M68.7804 69.3205C64.6212 68.7968 62.0027 67.7276 60.3305 65.7048M69.1634 68.1258C65.0042 67.6021 62.6829 66.737 61.1778 64.6832M69.4164 66.696C65.2571 66.1724 63.5982 65.6163 62.0251 63.6615" stroke="black" stroke-width="0.5" stroke-miterlimit="2.6131"/>
<path fill-rule="evenodd" clip-rule="evenodd" d="M84.851 22.777L88.2197 15.3237L86.1038 16.4946L83.3103 23.3225L84.851 22.777Z" fill="#C1994B"/>
<path fill-rule="evenodd" clip-rule="evenodd" d="M86.0965 14.5946L86.889 15.1388L87.7805 15.751L86.9082 16.1723L86.0358 16.5937L86.0166 15.5601L86.0965 14.5946Z" fill="#D7B46A"/>
<path fill-rule="evenodd" clip-rule="evenodd" d="M86.4676 14.2664L87.3591 14.8785L88.1516 15.4227L87.2792 15.8441L86.5059 16.3334L86.4868 15.2999L86.4676 14.2664Z" fill="#D7B46A"/>
<path fill-rule="evenodd" clip-rule="evenodd" d="M87.1049 13.9752L88.1576 14.9895L88.2196 15.3237L87.9165 15.5529L87.1432 16.0422L87.124 15.0087L87.1049 13.9752Z" fill="#D7B46A"/>
<path fill-rule="evenodd" clip-rule="evenodd" d="M83.3652 21.7567L83.9906 22.3319L84.715 22.9751L83.8116 23.2294L83.0752 23.4526L83.1862 22.6542L83.3652 21.7567Z" fill="#D7B46A"/>
<path fill-rule="evenodd" clip-rule="evenodd" d="M83.8353 21.4965L84.4607 22.0718L85.0181 22.746L84.2818 22.9692L83.4774 23.2915L83.6564 22.394L83.8353 21.4965Z" fill="#D7B46A"/>
<path fill-rule="evenodd" clip-rule="evenodd" d="M84.4357 21.4714L85.2903 22.3498L85.1853 22.715L84.9502 22.8451L84.0467 23.0993L84.3248 22.2699L84.4357 21.4714Z" fill="#D7B46A"/>
<path fill-rule="evenodd" clip-rule="evenodd" d="M69.7418 40.5355C69.9464 30.4722 69.9028 19.0723 71.0789 8.65573C71.5682 9.42906 71.5313 9.6952 72.0206 10.4685C71.2896 20.0246 71.3022 31.2574 70.5712 40.8135C70.138 40.8075 70.175 40.5414 69.7418 40.5355Z" fill="#DC2311" stroke="black" stroke-width="0.5" stroke-miterlimit="2.6131" stroke-linecap="round" stroke-linejoin="round"/>
<path fill-rule="evenodd" clip-rule="evenodd" d="M70.3657 16.9122L70.9369 9.28712L72.1448 11.1369L71.6786 18.3967L70.3657 16.9122Z" fill="#C1994B"/>
<path fill-rule="evenodd" clip-rule="evenodd" d="M72.1666 16.8369L71.3312 16.9921L70.5268 17.3143L71.1522 17.8895L71.6786 18.3967L71.9566 17.5673L72.1666 16.8369Z" fill="#D7B46A"/>
<path fill-rule="evenodd" clip-rule="evenodd" d="M71.9374 16.5336L71.2011 16.7568L70.2977 17.0111L70.9231 17.5863L71.5485 18.1615L71.7274 17.264L71.9374 16.5336Z" fill="#D7B46A"/>
<path fill-rule="evenodd" clip-rule="evenodd" d="M71.4422 16.1935L70.4028 16.6459L70.3658 16.912L70.4959 17.1471L71.0222 17.6543L71.2322 16.9239L71.4422 16.1935Z" fill="#D7B46A"/>
<path fill-rule="evenodd" clip-rule="evenodd" d="M72.5337 9.50894L71.8654 9.6331L71.1291 9.85632L71.5874 10.4626L72.1448 11.1368L72.2557 10.3384L72.5337 9.50894Z" fill="#D7B46A"/>
<path fill-rule="evenodd" clip-rule="evenodd" d="M72.3726 9.10666L71.6363 9.32988L70.8999 9.5531L71.3583 10.1593L71.9156 10.8336L72.1937 10.0041L72.3726 9.10666Z" fill="#D7B46A"/>
<path fill-rule="evenodd" clip-rule="evenodd" d="M71.9454 8.66757L70.9059 9.11995L70.8689 9.38609L70.931 9.72026L71.4884 10.3945L71.7664 9.56506L71.9454 8.66757Z" fill="#D7B46A"/>
<defs>
<filter id="filter0_d_108_73" x="38" y="936" width="678" height="292" filterUnits="userSpaceOnUse" color-interpolation-filters="sRGB">
<feFlood flood-opacity="0" result="BackgroundImageFix"/>
<feColorMatrix in="SourceAlpha" type="matrix" values="0 0 0 0 0 0 0 0 0 0 0 0 0 0 0 0 0 0 127 0" result="hardAlpha"/>
<feOffset dx="10" dy="10"/>
<feGaussianBlur stdDeviation="6"/>
<feComposite in2="hardAlpha" operator="out"/>
<feColorMatrix type="matrix" values="0 0 0 0 0 0 0 0 0 0 0 0 0 0 0 0 0 0 0.3 0"/>
<feBlend mode="normal" in2="BackgroundImageFix" result="effect1_dropShadow_108_73"/>
<feBlend mode="normal" in="SourceGraphic" in2="effect1_dropShadow_108_73" result="shape"/>
</filter>
</defs>
</svg>
