<svg width="691" height="1400" viewBox="0 0 691 1400" fill="none" xmlns="http://www.w3.org/2000/svg">
<g filter="url(#filter0_d_108_74)">
<path d="M74.8917 1171C82.0321 1171 88.875 1171.6 95.4204 1172.79C102.164 1173.98 108.412 1175.47 114.164 1177.26C119.916 1179.05 125.073 1181.14 129.635 1183.53C134.395 1185.71 138.461 1188 141.833 1190.39L124.577 1223.2C122.197 1222 119.321 1220.51 115.949 1218.72C112.577 1216.73 108.908 1214.85 104.941 1213.06C101.172 1211.27 97.2055 1209.78 93.0402 1208.58C89.0733 1207.39 85.2057 1206.79 81.4371 1206.79C74.495 1206.79 69.338 1208.28 65.9662 1211.27C62.5943 1214.05 60.9084 1217.63 60.9084 1222C61.1067 1225.38 61.9001 1228.37 63.2885 1230.95C64.6769 1233.54 66.7596 1236.12 69.5364 1238.71C72.3132 1241.09 75.8835 1243.48 80.247 1245.87C84.6106 1248.25 89.9659 1250.74 96.313 1253.32C104.247 1256.7 111.189 1260.18 117.139 1263.76C123.09 1267.34 127.949 1271.42 131.717 1275.99C135.684 1280.56 138.66 1285.73 140.643 1291.5C142.626 1297.27 143.618 1303.93 143.618 1311.49C143.618 1320.63 141.932 1329.28 138.56 1337.44C135.387 1345.39 130.726 1352.35 124.577 1358.31C118.428 1364.28 110.99 1368.95 102.263 1372.33C93.5361 1375.71 83.7181 1377.4 72.8091 1377.4C65.0737 1377.4 57.6357 1376.71 50.4953 1375.32C43.5532 1373.92 37.107 1372.13 31.1567 1369.95C25.2063 1367.76 19.7518 1365.47 14.7932 1363.09C9.83457 1360.5 5.57021 1358.12 2 1355.93L18.0659 1320.73C19.4543 1321.73 22.0328 1323.42 25.8014 1325.8C29.5699 1327.99 33.8343 1330.28 38.5946 1332.66C43.3549 1334.85 48.2143 1336.84 53.1729 1338.63C58.1315 1340.42 62.5943 1341.31 66.5612 1341.31C74.8917 1341.31 80.9412 1339.42 84.7098 1335.65C88.6767 1331.67 90.6601 1326.1 90.6601 1318.94C90.6601 1311.78 88.1808 1306.41 83.2222 1302.84C78.4619 1299.06 71.619 1295.38 62.6935 1291.8C53.9663 1288.22 46.2308 1284.44 39.4871 1280.47C32.7434 1276.49 26.9914 1272.01 22.2311 1267.04C17.6692 1262.07 14.099 1256.5 11.5205 1250.34C9.14039 1244.18 7.95033 1237.02 7.95033 1228.86C7.95033 1219.92 9.73546 1211.96 13.3057 1205C17.0742 1197.84 22.0328 1191.78 28.1815 1186.81C34.3302 1181.64 41.3715 1177.76 49.3053 1175.18C57.4374 1172.39 65.9662 1171 74.8917 1171Z" fill="black"/>
<path d="M146.026 1227.07H170.423L175.48 1196.35L216.24 1187.4V1227.07H251.347L245.694 1261.67H216.24V1328.19C216.24 1336.94 220.802 1341.31 229.926 1341.31C234.885 1341.31 239.645 1340.82 244.207 1339.82C246.587 1339.22 248.967 1338.63 251.347 1338.03L259.38 1369.65C255.413 1371.04 249.86 1372.63 242.719 1374.42C235.777 1376.01 227.248 1376.81 217.133 1376.81C202.257 1376.81 190.555 1373.72 182.026 1367.56C173.695 1361.4 169.53 1350.96 169.53 1336.24V1261.67H146.026V1227.07Z" fill="black"/>
<path d="M397.117 1303.73C397.117 1315.66 397.91 1325.6 399.497 1333.56C401.084 1341.51 402.968 1347.87 405.15 1352.65C407.53 1358.41 410.307 1362.89 413.48 1366.07L375.696 1378C373.514 1376.01 371.53 1373.53 369.745 1370.54C368.158 1367.96 366.572 1364.88 364.985 1361.3C363.597 1357.52 362.406 1353.14 361.415 1348.17C358.043 1357.52 353.084 1364.78 346.539 1369.95C339.993 1374.92 331.365 1377.4 320.655 1377.4C310.936 1377.4 302.407 1375.61 295.068 1372.03C287.928 1368.46 281.978 1363.48 277.217 1357.12C272.457 1350.56 268.887 1342.7 266.507 1333.56C264.325 1324.41 263.234 1314.27 263.234 1303.13C263.234 1291.8 265.019 1281.26 268.589 1271.52C272.358 1261.77 277.515 1253.42 284.06 1246.46C290.606 1239.3 298.44 1233.74 307.564 1229.76C316.688 1225.78 326.804 1223.79 337.911 1223.79C344.06 1223.79 350.605 1224.29 357.547 1225.29C364.489 1226.08 370.836 1227.07 376.588 1228.27C382.34 1229.26 387.1 1230.26 390.869 1231.25C394.836 1232.05 396.918 1232.44 397.117 1232.44V1303.73ZM328.39 1342.8C331.366 1342.8 334.142 1341.51 336.721 1338.93C339.498 1336.34 341.878 1332.86 343.861 1328.49C345.845 1324.11 347.332 1319.14 348.324 1313.57C349.514 1307.81 350.109 1301.74 350.109 1295.38V1260.78C348.721 1260.18 346.737 1259.69 344.159 1259.29C341.779 1258.69 339.696 1258.39 337.911 1258.39C333.151 1258.39 329.184 1259.49 326.01 1261.67C322.837 1263.66 320.258 1266.55 318.275 1270.32C316.49 1273.9 315.2 1278.28 314.407 1283.45C313.614 1288.62 313.217 1294.19 313.217 1300.15C313.217 1305.72 313.316 1311.09 313.514 1316.26C313.713 1321.23 314.308 1325.7 315.3 1329.68C316.49 1333.66 318.076 1336.84 320.06 1339.22C322.043 1341.61 324.82 1342.8 328.39 1342.8Z" fill="black"/>
<path d="M502.561 1268.83C500.379 1268.83 497.999 1269.43 495.421 1270.62C492.842 1271.82 490.363 1273.7 487.983 1276.29C485.603 1278.68 483.619 1281.86 482.032 1285.83C480.446 1289.61 479.652 1294.19 479.652 1299.55V1375.61H432.645V1298.06C432.645 1286.13 431.752 1276.29 429.967 1268.53C428.38 1260.58 426.496 1254.12 424.314 1249.15C421.934 1243.58 419.256 1239.11 416.281 1235.72L454.066 1223.79C455.653 1225.78 457.339 1228.07 459.124 1230.65C460.512 1232.84 462 1235.63 463.586 1239.01C465.173 1242.39 466.462 1246.26 467.454 1250.64C472.413 1241.09 478.264 1234.23 485.008 1230.06C491.95 1225.88 500.082 1223.79 509.404 1223.79C513.569 1223.79 517.239 1224.19 520.412 1224.99C523.784 1225.58 526.561 1226.28 528.743 1227.07L516.544 1272.11C515.156 1271.32 513.272 1270.62 510.892 1270.03C508.71 1269.23 505.933 1268.83 502.561 1268.83Z" fill="black"/>
<path d="M535.646 1227.07H560.042L565.1 1196.35L605.86 1187.4V1227.07H640.967L635.314 1261.67H605.86V1328.19C605.86 1336.94 610.422 1341.31 619.546 1341.31C624.504 1341.31 629.265 1340.82 633.827 1339.82C636.207 1339.22 638.587 1338.63 640.967 1338.03L649 1369.65C645.033 1371.04 639.479 1372.63 632.339 1374.42C625.397 1376.01 616.868 1376.81 606.753 1376.81C591.877 1376.81 580.174 1373.72 571.646 1367.56C563.315 1361.4 559.15 1350.96 559.15 1336.24V1261.67H535.646V1227.07Z" fill="black"/>
</g>
<path d="M608 1065L608 138" stroke="black" stroke-opacity="0.7" stroke-width="7"/>
<g clip-path="url(#clip0_108_74)">
<path fill-rule="evenodd" clip-rule="evenodd" d="M668.46 1086.98C652.425 1105.55 637.557 1122.67 621.523 1141.23C619.403 1139.36 617.014 1138.02 613.756 1137.16C614.037 1108.18 612.098 1080.37 612.379 1051.39C608.885 1050.04 606.389 1049.8 603.332 1050.45C602.009 1050.71 601.263 1050.85 601.537 1052.27C601.767 1053.35 602.311 1054.24 602.978 1054.78C604.027 1055.63 603.752 1056.75 603.578 1057.35C601.25 1079.31 598.199 1101.56 595.968 1123.59C595.395 1125.66 594.351 1126.75 592.831 1127.45C587.48 1129.36 585.504 1134.91 590.652 1139.09C593.608 1141.49 594.611 1144.55 594.072 1148.13C590.199 1158.54 586.349 1169.13 582.476 1179.54C584.714 1181.66 587.434 1183.57 590.871 1185.77C595.327 1177.17 600.792 1168.49 606.032 1160.68C608.786 1161.58 610.508 1162.38 611.579 1163.4C610.808 1173.51 608.393 1187.19 607.622 1197.29C610.062 1198.38 612.961 1199.1 616.209 1198.61C620.155 1188.11 624.09 1173.72 629.213 1163.13C630.072 1161.29 632.579 1160.35 635.097 1160.76C639.966 1161.59 643.64 1159.21 640.36 1153.11C639.133 1150.92 638.87 1148.33 641.602 1143.99C652.111 1127.94 662.576 1111.56 673.085 1095.51C673.612 1095.64 674.066 1095.86 674.571 1095.83C675.171 1095.87 675.704 1095.41 675.979 1094.29C676.226 1093.59 676.036 1093.44 675.682 1092.71C674.028 1089.87 672.223 1087.81 670.002 1086.45C668.948 1086.19 669.043 1086.27 668.46 1086.98Z" fill="black" stroke="#282727" stroke-width="0.5" stroke-miterlimit="2.6131"/>
<path fill-rule="evenodd" clip-rule="evenodd" d="M667.275 1090.19C651.241 1108.76 635.061 1127.5 619.026 1146.06C616.906 1144.19 614.613 1142.92 611.354 1142.06C611.467 1113.09 611.009 1083.66 611.122 1054.69C607.701 1053.25 605.205 1053.01 602.148 1053.66C600.993 1053.91 600.056 1053.9 600.308 1055.14C600.465 1056.31 601.031 1057.37 601.889 1058.07C602.938 1058.92 602.663 1060.04 602.489 1060.64C600.162 1082.59 597.111 1104.85 594.879 1126.88C594.306 1128.95 593.263 1130.04 591.742 1130.74C586.391 1132.65 584.416 1138.2 589.563 1142.38C592.519 1144.78 593.522 1147.83 592.983 1151.42C589.11 1161.83 585.26 1172.41 581.387 1182.83C583.625 1184.94 586.726 1187.17 590.091 1189.45C594.546 1180.85 599.849 1171.6 604.994 1163.71C607.237 1165.24 608.937 1165.87 610.518 1166.27C609.747 1176.37 608.32 1187.28 607.645 1197.46C610.084 1198.55 612.984 1199.27 616.232 1198.78C620.177 1188.27 623.001 1177.01 628.051 1166.51C628.91 1164.67 631.417 1163.73 633.936 1164.14C638.804 1164.96 642.478 1162.58 639.199 1156.49C637.971 1154.3 637.708 1151.7 640.44 1147.37C650.95 1131.32 661.414 1114.94 671.923 1098.89C673.168 1099.31 674.15 1099.66 674.913 1097.74C675.233 1096.96 675.137 1096.88 674.689 1096.07C673.035 1093.24 671.229 1091.17 668.913 1089.74C667.837 1089.31 667.954 1089.55 667.275 1090.19Z" fill="black" stroke="#3C3C3B" stroke-width="0.5" stroke-miterlimit="2.6131"/>
<path fill-rule="evenodd" clip-rule="evenodd" d="M618.359 1145.52C624.555 1150.55 626.399 1158.61 622.46 1163.45C618.522 1168.3 610.26 1168.14 604.063 1163.11C597.866 1158.07 596.023 1150.01 599.962 1145.17C603.996 1140.4 612.162 1140.48 618.359 1145.52Z" fill="#3C3C3B" stroke="#282727" stroke-width="0.5" stroke-miterlimit="2.6131"/>
<path fill-rule="evenodd" clip-rule="evenodd" d="M617.41 1146.68C623.035 1151.25 624.62 1158.65 620.974 1163.14C617.327 1167.63 609.76 1167.59 604.136 1163.02C598.511 1158.44 596.926 1151.05 600.572 1146.56C604.219 1142.07 611.786 1142.11 617.41 1146.68Z" fill="black" stroke="#282727" stroke-width="0.5" stroke-miterlimit="2.6131"/>
<path fill-rule="evenodd" clip-rule="evenodd" d="M612.607 1153.96C613.942 1155.04 614.334 1156.7 613.459 1157.78C612.584 1158.85 610.879 1158.81 609.544 1157.72C608.209 1156.64 607.817 1154.98 608.692 1153.9C609.568 1152.83 611.273 1152.87 612.607 1153.96Z" fill="black" stroke="#3C3C3B" stroke-width="0.5" stroke-miterlimit="2.6131"/>
<path fill-rule="evenodd" clip-rule="evenodd" d="M604.921 1163.8C599.725 1171.95 594.765 1180.58 590.208 1189.7C591.027 1189.47 591.824 1189.07 592.62 1188.68C597.143 1180.58 601.593 1172.57 606.043 1164.57C605.661 1164.26 605.28 1163.95 604.921 1163.8Z" fill="#3C3C3B" stroke="black" stroke-width="0.5" stroke-miterlimit="2.6131" stroke-linecap="round" stroke-linejoin="round"/>
<path fill-rule="evenodd" clip-rule="evenodd" d="M676.08 1093.77C674.146 1090.12 671.842 1087.5 669.043 1086.27C668.673 1087.31 668.302 1088.35 667.932 1089.39C670.394 1090.64 672.463 1092.77 674.022 1095.53C674.352 1096.1 674.588 1096.58 674.919 1097.15C675.384 1096.19 675.828 1095.06 676.08 1093.77Z" fill="#282727" stroke="black" stroke-width="0.5" stroke-miterlimit="2.6131"/>
<path fill-rule="evenodd" clip-rule="evenodd" d="M601.79 1050.98C604.084 1049.72 608.936 1049.79 612.475 1051.47C611.936 1052.52 611.661 1053.64 611.195 1054.6C608.733 1053.35 605.542 1052.99 602.389 1053.56C601.812 1053.68 601.453 1053.54 600.364 1054.29C600.662 1053.34 600.987 1051.97 601.79 1050.98Z" fill="#282727" stroke="black" stroke-width="0.5" stroke-miterlimit="2.6131"/>
<path d="M612.88 1138.23C617.003 1139.2 619.56 1140.53 621.124 1142.7M612.437 1139.36C616.559 1140.33 618.831 1141.43 620.227 1143.61M612.111 1140.74C616.234 1141.7 617.86 1142.43 619.329 1144.52" stroke="#282727" stroke-width="0.5" stroke-miterlimit="2.6131"/>
<path fill-rule="evenodd" clip-rule="evenodd" d="M594.462 1182.13L590.719 1189.07L592.89 1188.15L596.027 1181.76L594.462 1182.13Z" fill="#C1994B"/>
<path fill-rule="evenodd" clip-rule="evenodd" d="M592.8 1190.02L592.037 1189.4L591.179 1188.7L592.071 1188.38L592.963 1188.06L592.929 1189.08L592.8 1190.02Z" fill="#D7B46A"/>
<path fill-rule="evenodd" clip-rule="evenodd" d="M592.413 1190.3L591.555 1189.6L590.792 1188.98L591.684 1188.66L592.48 1188.27L592.446 1189.28L592.413 1190.3Z" fill="#D7B46A"/>
<path fill-rule="evenodd" clip-rule="evenodd" d="M591.762 1190.51L590.764 1189.4L590.719 1189.07L591.033 1188.88L591.83 1188.48L591.796 1189.5L591.762 1190.51Z" fill="#D7B46A"/>
<path fill-rule="evenodd" clip-rule="evenodd" d="M595.892 1183.29L595.297 1182.66L594.608 1181.95L595.522 1181.8L596.268 1181.66L596.116 1182.43L595.892 1183.29Z" fill="#D7B46A"/>
<path fill-rule="evenodd" clip-rule="evenodd" d="M595.409 1183.49L594.815 1182.86L594.293 1182.14L595.039 1182L595.858 1181.77L595.634 1182.63L595.409 1183.49Z" fill="#D7B46A"/>
<path fill-rule="evenodd" clip-rule="evenodd" d="M594.809 1183.45L594.002 1182.5L594.125 1182.15L594.366 1182.05L595.281 1181.9L594.961 1182.68L594.809 1183.45Z" fill="#D7B46A"/>
<path fill-rule="evenodd" clip-rule="evenodd" d="M610.445 1166.36C609.725 1176.2 609.184 1187.39 607.476 1197.47C607.028 1196.66 607.078 1196.4 606.63 1195.59C607.849 1186.3 608.413 1175.28 609.632 1165.99C610.064 1166.05 610.013 1166.3 610.445 1166.36Z" fill="#3C3C3B" stroke="black" stroke-width="0.5" stroke-miterlimit="2.6131" stroke-linecap="round" stroke-linejoin="round"/>
<path fill-rule="evenodd" clip-rule="evenodd" d="M608.611 1189.45L607.65 1196.87L606.54 1194.92L607.378 1187.85L608.611 1189.45Z" fill="#C1994B"/>
<path fill-rule="evenodd" clip-rule="evenodd" d="M606.811 1189.33L607.652 1189.27L608.471 1189.04L607.877 1188.41L607.378 1187.85L607.058 1188.64L606.811 1189.33Z" fill="#D7B46A"/>
<path fill-rule="evenodd" clip-rule="evenodd" d="M607.024 1189.65L607.77 1189.51L608.684 1189.36L608.09 1188.73L607.495 1188.1L607.271 1188.96L607.024 1189.65Z" fill="#D7B46A"/>
<path fill-rule="evenodd" clip-rule="evenodd" d="M607.5 1190.04L608.561 1189.71L608.611 1189.45L608.493 1189.21L607.994 1188.65L607.747 1189.35L607.5 1190.04Z" fill="#D7B46A"/>
<path fill-rule="evenodd" clip-rule="evenodd" d="M606.069 1196.48L606.742 1196.43L607.488 1196.29L607.062 1195.64L606.54 1194.92L606.389 1195.69L606.069 1196.48Z" fill="#D7B46A"/>
<path fill-rule="evenodd" clip-rule="evenodd" d="M606.209 1196.89L606.955 1196.75L607.701 1196.61L607.275 1195.97L606.753 1195.25L606.434 1196.03L606.209 1196.89Z" fill="#D7B46A"/>
<path fill-rule="evenodd" clip-rule="evenodd" d="M606.613 1197.37L607.673 1197.04L607.723 1196.78L607.678 1196.44L607.157 1195.72L606.837 1196.51L606.613 1197.37Z" fill="#D7B46A"/>
</g>
<g clip-path="url(#clip1_108_74)">
<path fill-rule="evenodd" clip-rule="evenodd" d="M545.423 123.412C560.362 103.958 574.219 86.0055 589.158 66.5519C591.382 68.2985 593.845 69.5042 597.147 70.1751C598.535 99.1225 602.072 126.769 603.459 155.716C607.025 156.862 609.531 156.958 612.545 156.138C613.852 155.797 614.588 155.616 614.233 154.219C613.941 153.153 613.347 152.296 612.65 151.793C611.554 151.003 611.764 149.871 611.903 149.259C612.963 127.209 614.727 104.812 615.687 82.6908C616.139 80.5933 617.118 79.4458 618.596 78.6576C623.828 76.4428 625.481 70.7908 620.101 66.9104C617.012 64.6828 615.835 61.6949 616.167 58.0845C619.433 47.4652 622.668 36.6801 625.935 26.0608C623.579 24.0767 620.754 22.3241 617.195 20.3279C613.242 29.1689 608.285 38.1415 603.503 46.242C600.703 45.5053 598.937 44.8026 597.809 43.8465C597.997 33.7157 599.62 19.9149 599.808 9.78418C597.31 8.8379 594.374 8.28874 591.16 8.96498C587.826 19.6781 584.725 34.2672 580.22 45.1339C579.469 47.0159 577.02 48.1013 574.482 47.8396C569.574 47.2942 566.043 49.8804 569.668 55.7744C571.02 57.8901 571.432 60.4688 568.954 64.9551C559.386 81.5812 549.882 98.5386 540.314 115.165C539.78 115.065 539.314 114.871 538.812 114.937C538.211 114.931 537.705 115.422 537.495 116.553C537.288 117.26 537.488 117.404 537.882 118.116C539.697 120.851 541.618 122.807 543.913 124.034C544.981 124.234 544.882 124.162 545.423 123.412Z" fill="black" stroke="#282727" stroke-width="0.5" stroke-miterlimit="2.6131"/>
<path fill-rule="evenodd" clip-rule="evenodd" d="M546.42 120.139C561.359 100.685 576.434 81.0442 591.373 61.5906C593.597 63.3372 595.96 64.471 599.263 65.142C600.817 94.0674 602.97 123.424 604.524 152.349C608.023 153.589 610.528 153.685 613.543 152.865C614.682 152.546 615.618 152.508 615.294 151.277C615.07 150.117 614.444 149.095 613.548 148.449C612.452 147.658 612.662 146.527 612.801 145.914C613.86 123.864 615.625 101.467 616.585 79.346C617.037 77.2484 618.016 76.101 619.494 75.3128C624.726 73.098 626.379 67.446 620.999 63.5656C617.91 61.3379 616.733 58.3501 617.065 54.7397C620.331 44.1203 623.566 33.3353 626.833 22.716C624.477 20.7319 621.253 18.6918 617.762 16.6018C613.809 25.4428 609.048 34.9843 604.365 43.1567C602.038 41.7633 600.305 41.2263 598.704 40.9267C598.891 30.796 599.688 19.8212 599.776 9.61859C597.278 8.67231 594.342 8.12315 591.128 8.79938C587.794 19.5125 585.623 30.9224 581.186 41.6953C580.434 43.5773 577.985 44.6627 575.448 44.401C570.54 43.8556 567.008 46.4418 570.633 52.3358C571.985 54.4515 572.397 57.0302 569.919 61.5165C560.351 78.1426 550.847 95.1 541.28 111.726C540.013 111.383 539.013 111.089 538.361 113.043C538.087 113.843 538.186 113.915 538.681 114.7C540.495 117.434 542.416 119.39 544.811 120.69C545.911 121.055 545.779 120.817 546.42 120.139Z" fill="black" stroke="#3C3C3B" stroke-width="0.5" stroke-miterlimit="2.6131"/>
<path fill-rule="evenodd" clip-rule="evenodd" d="M592.071 62.0936C585.594 57.4227 583.29 49.4871 586.943 44.4221C590.596 39.3571 598.854 39.0387 605.33 43.7096C611.806 48.3804 614.11 56.316 610.457 61.381C606.705 66.3741 598.547 66.7644 592.071 62.0936Z" fill="#3C3C3B" stroke="#282727" stroke-width="0.5" stroke-miterlimit="2.6131"/>
<path fill-rule="evenodd" clip-rule="evenodd" d="M592.95 60.8742C587.072 56.6345 585.063 49.3396 588.445 44.6498C591.828 39.96 599.384 39.5637 605.262 43.8034C611.141 48.0431 613.15 55.338 609.767 60.0278C606.385 64.7176 598.829 65.114 592.95 60.8742Z" fill="black" stroke="#282727" stroke-width="0.5" stroke-miterlimit="2.6131"/>
<path fill-rule="evenodd" clip-rule="evenodd" d="M597.326 53.3364C595.931 52.3304 595.444 50.6958 596.256 49.5702C597.068 48.4447 598.773 48.391 600.168 49.397C601.562 50.403 602.05 52.0377 601.238 53.1632C600.426 54.2888 598.721 54.3425 597.326 53.3364Z" fill="black" stroke="#3C3C3B" stroke-width="0.5" stroke-miterlimit="2.6131"/>
<path fill-rule="evenodd" clip-rule="evenodd" d="M604.433 43.0628C609.151 34.631 613.606 25.7242 617.63 16.3643C616.826 16.6396 616.054 17.0806 615.281 17.5216C611.232 25.8656 607.251 34.1159 603.269 42.3662C603.668 42.6536 604.067 42.941 604.433 43.0628Z" fill="#3C3C3B" stroke="black" stroke-width="0.5" stroke-miterlimit="2.6131" stroke-linecap="round" stroke-linejoin="round"/>
<path fill-rule="evenodd" clip-rule="evenodd" d="M537.424 117.072C539.565 120.613 542.017 123.094 544.881 124.162C545.191 123.103 545.501 122.043 545.811 120.983C543.281 119.871 541.093 117.865 539.378 115.202C539.015 114.656 538.752 114.181 538.389 113.634C537.979 114.622 537.602 115.775 537.424 117.072Z" fill="#282727" stroke="black" stroke-width="0.5" stroke-miterlimit="2.6131"/>
<path fill-rule="evenodd" clip-rule="evenodd" d="M614.055 155.516C611.837 156.911 606.989 157.122 603.36 155.644C603.837 154.563 604.047 153.431 604.457 152.443C606.987 153.555 610.194 153.729 613.308 152.981C613.877 152.821 614.244 152.943 615.287 152.127C615.045 153.093 614.799 154.484 614.055 155.516Z" fill="#282727" stroke="black" stroke-width="0.5" stroke-miterlimit="2.6131"/>
<path d="M597.959 69.0496C593.788 68.3227 591.158 67.1389 589.472 65.0671M598.337 67.8961C594.166 67.1691 591.835 66.2009 590.316 64.1072M598.583 66.505C594.412 65.7781 592.746 65.1472 591.159 63.1473" stroke="#282727" stroke-width="0.5" stroke-miterlimit="2.6131"/>
<path fill-rule="evenodd" clip-rule="evenodd" d="M613.82 24.1675L617.157 17.0208L615.042 18.0624L612.279 24.6243L613.82 24.1675Z" fill="#C1994B"/>
<path fill-rule="evenodd" clip-rule="evenodd" d="M615.025 16.1963L615.822 16.7712L616.719 17.4179L615.847 17.7871L614.975 18.1562L614.95 17.1403L615.025 16.1963Z" fill="#D7B46A"/>
<path fill-rule="evenodd" clip-rule="evenodd" d="M615.395 15.893L616.292 16.5397L617.089 17.1146L616.217 17.4837L615.445 17.9247L615.42 16.9088L615.395 15.893Z" fill="#D7B46A"/>
<path fill-rule="evenodd" clip-rule="evenodd" d="M616.033 15.6396L617.093 16.6895L617.157 17.0208L616.854 17.2303L616.082 17.6713L616.057 16.6554L616.033 15.6396Z" fill="#D7B46A"/>
<path fill-rule="evenodd" clip-rule="evenodd" d="M612.326 23.0896L612.955 23.6864L613.685 24.3551L612.781 24.5586L612.044 24.7401L612.151 23.9617L612.326 23.0896Z" fill="#D7B46A"/>
<path fill-rule="evenodd" clip-rule="evenodd" d="M612.795 22.8581L613.425 23.4549L613.987 24.1455L613.251 24.327L612.446 24.6024L612.621 23.7302L612.795 22.8581Z" fill="#D7B46A"/>
<path fill-rule="evenodd" clip-rule="evenodd" d="M613.397 22.8642L614.258 23.7704L614.155 24.1237L613.92 24.2394L613.016 24.4429L613.29 23.6426L613.397 22.8642Z" fill="#D7B46A"/>
<path fill-rule="evenodd" clip-rule="evenodd" d="M598.771 40.8329C598.923 30.9617 598.82 19.7652 599.944 9.59662C600.438 10.381 600.403 10.6405 600.897 11.4249C600.215 20.7712 600.286 31.802 599.604 41.1483C599.17 41.1204 599.206 40.8609 598.771 40.8329Z" fill="#3C3C3B" stroke="black" stroke-width="0.5" stroke-miterlimit="2.6131" stroke-linecap="round" stroke-linejoin="round"/>
<path fill-rule="evenodd" clip-rule="evenodd" d="M599.272 17.6676L599.804 10.2093L601.025 12.0875L600.596 19.1925L599.272 17.6676Z" fill="#C1994B"/>
<path fill-rule="evenodd" clip-rule="evenodd" d="M601.077 17.6857L600.24 17.7954L599.436 18.0707L600.066 18.6676L600.596 19.1925L600.87 18.3922L601.077 17.6857Z" fill="#D7B46A"/>
<path fill-rule="evenodd" clip-rule="evenodd" d="M600.845 17.3763L600.109 17.5579L599.205 17.7613L599.834 18.3581L600.464 18.955L600.639 18.0828L600.845 17.3763Z" fill="#D7B46A"/>
<path fill-rule="evenodd" clip-rule="evenodd" d="M600.347 17.0171L599.308 17.4081L599.272 17.6676L599.404 17.9051L599.934 18.4301L600.141 17.7236L600.347 17.0171Z" fill="#D7B46A"/>
<path fill-rule="evenodd" clip-rule="evenodd" d="M601.406 10.5089L600.737 10.5966L600 10.7782L600.463 11.3969L601.025 12.0875L601.132 11.3092L601.406 10.5089Z" fill="#D7B46A"/>
<path fill-rule="evenodd" clip-rule="evenodd" d="M601.242 10.1056L600.506 10.2872L599.769 10.4687L600.231 11.0875L600.793 11.7781L601.068 10.9778L601.242 10.1056Z" fill="#D7B46A"/>
<path fill-rule="evenodd" clip-rule="evenodd" d="M600.812 9.65251L599.773 10.0436L599.737 10.303L599.801 10.6343L600.363 11.325L600.637 10.5247L600.812 9.65251Z" fill="#D7B46A"/>
</g>
<defs>
<filter id="filter0_d_108_74" x="0" y="1169" width="671" height="231" filterUnits="userSpaceOnUse" color-interpolation-filters="sRGB">
<feFlood flood-opacity="0" result="BackgroundImageFix"/>
<feColorMatrix in="SourceAlpha" type="matrix" values="0 0 0 0 0 0 0 0 0 0 0 0 0 0 0 0 0 0 127 0" result="hardAlpha"/>
<feOffset dx="10" dy="10"/>
<feGaussianBlur stdDeviation="6"/>
<feComposite in2="hardAlpha" operator="out"/>
<feColorMatrix type="matrix" values="0 0 0 0 0 0 0 0 0 0 0 0 0 0 0 0 0 0 0.3 0"/>
<feBlend mode="normal" in2="BackgroundImageFix" result="effect1_dropShadow_108_74"/>
<feBlend mode="normal" in="SourceGraphic" in2="effect1_dropShadow_108_74" result="shape"/>
</filter>
<clipPath id="clip0_108_74">
<rect width="105.156" height="131.374" fill="white" transform="translate(611.265 1038.96) rotate(39.1008)"/>
</clipPath>
<clipPath id="clip1_108_74">
<rect width="105.156" height="131.374" fill="white" transform="translate(605.288 168.064) rotate(-144.2)"/>
</clipPath>
</defs>
</svg>
