<svg width="1122" height="120" viewBox="0 0 1122 120" fill="none" xmlns="http://www.w3.org/2000/svg">
<rect width="1122" height="120" rx="10" fill="#686552" fill-opacity="0.41"/>
<g filter="url(#filter0_d_52_59)">
<path d="M936 85C936 90.5228 940.477 95 946 95H1082C1087.52 95 1092 90.5228 1092 85V28C1092 22.4771 1087.52 18 1082 18H946C940.477 18 936 22.4771 936 28V85Z" fill="#8E8168"/>
</g>
<circle cx="11.5" cy="11.5" r="11.5" transform="matrix(1 0 0 -1 1055 52)" fill="#4F4F4F"/>
<circle cx="8.09259" cy="8.09259" r="8.09259" transform="matrix(1 0 0 -1 1058.41 48.5927)" fill="black"/>
<circle cx="5.53704" cy="5.53704" r="5.53704" transform="matrix(1 0 0 -1 1060.96 46.037)" fill="#464646"/>
<g filter="url(#filter1_d_52_59)">
<path d="M26 85C26 90.5228 30.4772 95 36 95H172C177.523 95 182 90.5228 182 85V28C182 22.4771 177.523 18 172 18H36C30.4772 18 26 22.4771 26 28V85Z" fill="#8E8168"/>
</g>
<g filter="url(#filter2_d_52_59)">
<path d="M208 85C208 90.5228 212.477 95 218 95H354C359.523 95 364 90.5228 364 85V28C364 22.4771 359.523 18 354 18H218C212.477 18 208 22.4771 208 28V85Z" fill="#8E8168"/>
</g>
<g filter="url(#filter3_d_52_59)">
<path d="M390 85C390 90.5228 394.477 95 400 95H536C541.523 95 546 90.5228 546 85V28C546 22.4771 541.523 18 536 18H400C394.477 18 390 22.4771 390 28V85Z" fill="#8E8168"/>
</g>
<g filter="url(#filter4_d_52_59)">
<path d="M572 85C572 90.5228 576.477 95 582 95H718C723.523 95 728 90.5228 728 85V28C728 22.4771 723.523 18 718 18H582C576.477 18 572 22.4771 572 28V85Z" fill="#8E8168"/>
</g>
<g filter="url(#filter5_d_52_59)">
<path d="M754 85C754 90.5228 758.477 95 764 95H900C905.523 95 910 90.5228 910 85V28C910 22.4771 905.523 18 900 18H764C758.477 18 754 22.4771 754 28V85Z" fill="#8E8168"/>
</g>
<rect width="85" height="18" transform="matrix(1 0 0 -1 151 80)" fill="#292929"/>
<circle cx="13.5" cy="13.5" r="13.5" transform="matrix(1 0 0 -1 143 84)" fill="#4F4F4F"/>
<circle cx="9.5" cy="9.5" r="9.5" transform="matrix(1 0 0 -1 147 80)" fill="black"/>
<circle cx="13.5" cy="13.5" r="13.5" transform="matrix(1 0 0 -1 221 84)" fill="#4F4F4F"/>
<circle cx="9.5" cy="9.5" r="9.5" transform="matrix(1 0 0 -1 225 80)" fill="black"/>
<rect width="85" height="18" transform="matrix(1 0 0 -1 332 54)" fill="#292929"/>
<circle cx="13.5" cy="13.5" r="13.5" transform="matrix(1 0 0 -1 324 58)" fill="#4F4F4F"/>
<circle cx="9.5" cy="9.5" r="9.5" transform="matrix(1 0 0 -1 328 54)" fill="black"/>
<circle cx="13.5" cy="13.5" r="13.5" transform="matrix(1 0 0 -1 402 58)" fill="#4F4F4F"/>
<circle cx="9.5" cy="9.5" r="9.5" transform="matrix(1 0 0 -1 406 54)" fill="black"/>
<rect width="85" height="18" transform="matrix(1 0 0 -1 513 80)" fill="#292929"/>
<circle cx="13.5" cy="13.5" r="13.5" transform="matrix(1 0 0 -1 505 84)" fill="#4F4F4F"/>
<circle cx="9.5" cy="9.5" r="9.5" transform="matrix(1 0 0 -1 509 80)" fill="black"/>
<circle cx="13.5" cy="13.5" r="13.5" transform="matrix(1 0 0 -1 583 84)" fill="#4F4F4F"/>
<circle cx="9.5" cy="9.5" r="9.5" transform="matrix(1 0 0 -1 587 80)" fill="black"/>
<rect width="85" height="18" transform="matrix(1 0 0 -1 694 55)" fill="#292929"/>
<circle cx="13.5" cy="13.5" r="13.5" transform="matrix(1 0 0 -1 686 59)" fill="#4F4F4F"/>
<circle cx="9.5" cy="9.5" r="9.5" transform="matrix(1 0 0 -1 690 55)" fill="black"/>
<circle cx="13.5" cy="13.5" r="13.5" transform="matrix(1 0 0 -1 764 59)" fill="#4F4F4F"/>
<circle cx="9.5" cy="9.5" r="9.5" transform="matrix(1 0 0 -1 768 55)" fill="black"/>
<rect width="85" height="18" transform="matrix(1 0 0 -1 875 80)" fill="#292929"/>
<circle cx="13.5" cy="13.5" r="13.5" transform="matrix(1 0 0 -1 867 84)" fill="#4F4F4F"/>
<circle cx="9.5" cy="9.5" r="9.5" transform="matrix(1 0 0 -1 871 80)" fill="black"/>
<circle cx="13.5" cy="13.5" r="13.5" transform="matrix(1 0 0 -1 945 84)" fill="#4F4F4F"/>
<circle cx="9.5" cy="9.5" r="9.5" transform="matrix(1 0 0 -1 949 80)" fill="black"/>
<circle cx="11.5" cy="11.5" r="11.5" transform="matrix(1 0 0 -1 35 52)" fill="#4F4F4F"/>
<circle cx="8.09259" cy="8.09259" r="8.09259" transform="matrix(1 0 0 -1 38.4074 48.5927)" fill="black"/>
<circle cx="5.53704" cy="5.53704" r="5.53704" transform="matrix(1 0 0 -1 40.963 46.037)" fill="#464646"/>
<defs>
<filter id="filter0_d_52_59" x="935" y="17" width="166" height="87" filterUnits="userSpaceOnUse" color-interpolation-filters="sRGB">
<feFlood flood-opacity="0" result="BackgroundImageFix"/>
<feColorMatrix in="SourceAlpha" type="matrix" values="0 0 0 0 0 0 0 0 0 0 0 0 0 0 0 0 0 0 127 0" result="hardAlpha"/>
<feOffset dx="4" dy="4"/>
<feGaussianBlur stdDeviation="2.5"/>
<feComposite in2="hardAlpha" operator="out"/>
<feColorMatrix type="matrix" values="0 0 0 0 0 0 0 0 0 0 0 0 0 0 0 0 0 0 0.2 0"/>
<feBlend mode="normal" in2="BackgroundImageFix" result="effect1_dropShadow_52_59"/>
<feBlend mode="normal" in="SourceGraphic" in2="effect1_dropShadow_52_59" result="shape"/>
</filter>
<filter id="filter1_d_52_59" x="25" y="17" width="166" height="87" filterUnits="userSpaceOnUse" color-interpolation-filters="sRGB">
<feFlood flood-opacity="0" result="BackgroundImageFix"/>
<feColorMatrix in="SourceAlpha" type="matrix" values="0 0 0 0 0 0 0 0 0 0 0 0 0 0 0 0 0 0 127 0" result="hardAlpha"/>
<feOffset dx="4" dy="4"/>
<feGaussianBlur stdDeviation="2.5"/>
<feComposite in2="hardAlpha" operator="out"/>
<feColorMatrix type="matrix" values="0 0 0 0 0 0 0 0 0 0 0 0 0 0 0 0 0 0 0.2 0"/>
<feBlend mode="normal" in2="BackgroundImageFix" result="effect1_dropShadow_52_59"/>
<feBlend mode="normal" in="SourceGraphic" in2="effect1_dropShadow_52_59" result="shape"/>
</filter>
<filter id="filter2_d_52_59" x="207" y="17" width="166" height="87" filterUnits="userSpaceOnUse" color-interpolation-filters="sRGB">
<feFlood flood-opacity="0" result="BackgroundImageFix"/>
<feColorMatrix in="SourceAlpha" type="matrix" values="0 0 0 0 0 0 0 0 0 0 0 0 0 0 0 0 0 0 127 0" result="hardAlpha"/>
<feOffset dx="4" dy="4"/>
<feGaussianBlur stdDeviation="2.5"/>
<feComposite in2="hardAlpha" operator="out"/>
<feColorMatrix type="matrix" values="0 0 0 0 0 0 0 0 0 0 0 0 0 0 0 0 0 0 0.2 0"/>
<feBlend mode="normal" in2="BackgroundImageFix" result="effect1_dropShadow_52_59"/>
<feBlend mode="normal" in="SourceGraphic" in2="effect1_dropShadow_52_59" result="shape"/>
</filter>
<filter id="filter3_d_52_59" x="389" y="17" width="166" height="87" filterUnits="userSpaceOnUse" color-interpolation-filters="sRGB">
<feFlood flood-opacity="0" result="BackgroundImageFix"/>
<feColorMatrix in="SourceAlpha" type="matrix" values="0 0 0 0 0 0 0 0 0 0 0 0 0 0 0 0 0 0 127 0" result="hardAlpha"/>
<feOffset dx="4" dy="4"/>
<feGaussianBlur stdDeviation="2.5"/>
<feComposite in2="hardAlpha" operator="out"/>
<feColorMatrix type="matrix" values="0 0 0 0 0 0 0 0 0 0 0 0 0 0 0 0 0 0 0.2 0"/>
<feBlend mode="normal" in2="BackgroundImageFix" result="effect1_dropShadow_52_59"/>
<feBlend mode="normal" in="SourceGraphic" in2="effect1_dropShadow_52_59" result="shape"/>
</filter>
<filter id="filter4_d_52_59" x="571" y="17" width="166" height="87" filterUnits="userSpaceOnUse" color-interpolation-filters="sRGB">
<feFlood flood-opacity="0" result="BackgroundImageFix"/>
<feColorMatrix in="SourceAlpha" type="matrix" values="0 0 0 0 0 0 0 0 0 0 0 0 0 0 0 0 0 0 127 0" result="hardAlpha"/>
<feOffset dx="4" dy="4"/>
<feGaussianBlur stdDeviation="2.5"/>
<feComposite in2="hardAlpha" operator="out"/>
<feColorMatrix type="matrix" values="0 0 0 0 0 0 0 0 0 0 0 0 0 0 0 0 0 0 0.2 0"/>
<feBlend mode="normal" in2="BackgroundImageFix" result="effect1_dropShadow_52_59"/>
<feBlend mode="normal" in="SourceGraphic" in2="effect1_dropShadow_52_59" result="shape"/>
</filter>
<filter id="filter5_d_52_59" x="753" y="17" width="166" height="87" filterUnits="userSpaceOnUse" color-interpolation-filters="sRGB">
<feFlood flood-opacity="0" result="BackgroundImageFix"/>
<feColorMatrix in="SourceAlpha" type="matrix" values="0 0 0 0 0 0 0 0 0 0 0 0 0 0 0 0 0 0 127 0" result="hardAlpha"/>
<feOffset dx="4" dy="4"/>
<feGaussianBlur stdDeviation="2.5"/>
<feComposite in2="hardAlpha" operator="out"/>
<feColorMatrix type="matrix" values="0 0 0 0 0 0 0 0 0 0 0 0 0 0 0 0 0 0 0.2 0"/>
<feBlend mode="normal" in2="BackgroundImageFix" result="effect1_dropShadow_52_59"/>
<feBlend mode="normal" in="SourceGraphic" in2="effect1_dropShadow_52_59" result="shape"/>
</filter>
</defs>
</svg>
