<svg width="607" height="228" viewBox="0 0 607 228" fill="none" xmlns="http://www.w3.org/2000/svg">
<g filter="url(#filter0_d_72_65)">
<path d="M72.9823 170.605C72.9823 180.498 71.6573 189.067 69.0073 196.31C66.3573 203.553 62.6473 209.913 57.8773 215.39C53.1073 220.867 47.5423 225.637 41.1823 229.7C34.8223 233.763 27.9323 237.562 20.5123 241.095L2.75734 211.68C9.47067 208.147 14.594 204.613 18.1273 201.08C21.8373 197.723 24.4873 194.278 26.0773 190.745C27.844 187.388 28.8157 184.12 28.9923 180.94C29.3457 177.583 29.5223 174.315 29.5223 171.135V2.59497H72.9823V170.605Z" fill="black"/>
<path d="M174.303 48.97H216.173V118.135C216.173 128.735 216.88 137.568 218.293 144.635C219.707 151.702 221.385 157.355 223.328 161.595C225.448 166.718 227.922 170.693 230.748 173.52L197.093 184.12C195.503 182.53 193.913 180.498 192.323 178.025C190.91 176.082 189.497 173.608 188.083 170.605C186.67 167.425 185.522 163.803 184.638 159.74C180.045 168.043 173.685 174.138 165.558 178.025C157.608 181.735 148.952 183.59 139.588 183.59C132.698 183.59 126.78 182.53 121.833 180.41C117.063 178.113 113.088 175.022 109.908 171.135C106.905 167.072 104.697 162.213 103.283 156.56C102.047 150.907 101.428 144.547 101.428 137.48V48.97H143.563V131.915C143.563 138.098 144.27 143.133 145.683 147.02C147.273 150.73 150.1 152.585 154.163 152.585C159.11 152.585 163.703 149.317 167.943 142.78C172.183 136.067 174.303 126.88 174.303 115.22V48.97Z" fill="black"/>
<path d="M390.713 182V99.32C390.713 93.1366 390.183 88.19 389.123 84.48C388.063 80.5933 385.678 78.65 381.968 78.65C377.728 78.65 373.753 81.7416 370.043 87.925C366.333 93.9316 364.478 101.97 364.478 112.04V182H322.343V99.32C322.343 93.1366 321.813 88.19 320.753 84.48C319.87 80.5933 317.485 78.65 313.598 78.65C309.182 78.65 305.118 81.83 301.408 88.19C297.875 94.3733 296.108 102.765 296.108 113.365V182H254.238V113.1C254.238 102.5 253.443 93.755 251.853 86.865C250.44 79.7983 248.762 74.0567 246.818 69.64C244.698 64.6933 242.313 60.7183 239.663 57.715L273.318 47.115C274.732 48.8816 276.233 50.9133 277.823 53.21C279.237 55.1533 280.562 57.715 281.798 60.895C283.212 63.8983 284.448 67.3433 285.508 71.23C289.748 62.9266 295.578 56.8316 302.998 52.945C310.595 49.0583 318.987 47.115 328.173 47.115C335.947 47.115 342.218 48.705 346.988 51.885C351.935 54.8883 355.91 59.305 358.913 65.135C363.507 58.775 368.983 54.1816 375.343 51.355C381.703 48.5283 388.77 47.115 396.543 47.115C403.433 47.115 409.175 48.2633 413.768 50.56C418.362 52.68 421.983 55.7716 424.633 59.835C427.46 63.7216 429.492 68.58 430.728 74.41C431.965 80.0633 432.583 86.335 432.583 93.225V182H390.713Z" fill="black"/>
<path d="M465.669 240.565V113.1C465.669 102.5 464.874 93.755 463.284 86.865C461.871 79.7983 460.192 74.0567 458.249 69.64C456.129 64.6933 453.744 60.7183 451.094 57.715L484.749 47.115C486.869 49.235 488.812 51.7966 490.579 54.8C491.992 57.2733 493.406 60.4533 494.819 64.34C496.232 68.05 497.292 72.3783 497.999 77.325C501.356 67.255 505.949 59.7466 511.779 54.8C517.786 49.6766 525.559 47.115 535.099 47.115C543.402 47.115 550.646 48.705 556.829 51.885C563.189 55.065 568.401 59.57 572.464 65.4C576.704 71.0533 579.796 77.9433 581.739 86.07C583.859 94.1966 584.919 103.295 584.919 113.365C584.919 123.258 583.329 132.533 580.149 141.19C576.969 149.67 572.464 157.09 566.634 163.45C560.981 169.633 554.267 174.58 546.494 178.29C538.721 181.823 530.329 183.59 521.319 183.59C516.372 183.59 511.779 183.06 507.539 182V233.41L465.669 240.565ZM526.884 77.855C524.234 77.855 521.672 79.0033 519.199 81.3C516.902 83.42 514.871 86.335 513.104 90.045C511.337 93.5783 509.924 97.8183 508.864 102.765C507.981 107.535 507.539 112.57 507.539 117.87V150.995C508.776 151.348 510.454 151.79 512.574 152.32C514.694 152.673 516.637 152.85 518.404 152.85C522.644 152.85 526.177 151.967 529.004 150.2C531.831 148.257 534.039 145.695 535.629 142.515C537.396 139.158 538.632 135.272 539.339 130.855C540.046 126.262 540.399 121.315 540.399 116.015C540.399 111.068 540.311 106.298 540.134 101.705C539.957 97.1116 539.339 93.0483 538.279 89.515C537.396 85.9816 536.071 83.155 534.304 81.035C532.537 78.915 530.064 77.855 526.884 77.855Z" fill="black"/>
</g>
<defs>
<filter id="filter0_d_72_65" x="0.757339" y="0.594971" width="606.162" height="262.5" filterUnits="userSpaceOnUse" color-interpolation-filters="sRGB">
<feFlood flood-opacity="0" result="BackgroundImageFix"/>
<feColorMatrix in="SourceAlpha" type="matrix" values="0 0 0 0 0 0 0 0 0 0 0 0 0 0 0 0 0 0 127 0" result="hardAlpha"/>
<feOffset dx="10" dy="10"/>
<feGaussianBlur stdDeviation="6"/>
<feComposite in2="hardAlpha" operator="out"/>
<feColorMatrix type="matrix" values="0 0 0 0 0 0 0 0 0 0 0 0 0 0 0 0 0 0 0.3 0"/>
<feBlend mode="normal" in2="BackgroundImageFix" result="effect1_dropShadow_72_65"/>
<feBlend mode="normal" in="SourceGraphic" in2="effect1_dropShadow_72_65" result="shape"/>
</filter>
</defs>
</svg>
