<svg width="215" height="746" viewBox="0 0 215 746" fill="none" xmlns="http://www.w3.org/2000/svg">
<path d="M51 627L51 22L118 22" stroke="black" stroke-opacity="0.7" stroke-width="7"/>
<g clip-path="url(#clip0_20_121)">
<path fill-rule="evenodd" clip-rule="evenodd" d="M13.3864 669.792C31.189 679.346 47.6709 688.139 65.4735 697.693C66.5526 695.628 67.9939 693.889 70.247 692.268C61.4925 670.059 54.7929 648.1 46.0384 625.892C48.3285 623.824 50.1777 622.904 52.7192 622.5C53.8156 622.314 54.4304 622.201 54.6362 623.371C54.7779 624.27 54.6215 625.114 54.268 625.727C53.7124 626.692 54.2533 627.471 54.565 627.884C62.8227 644.084 71.7272 660.307 79.9343 676.595C80.9841 678.017 82.1077 678.547 83.4838 678.639C88.1628 678.532 91.3169 682.217 88.5896 686.952C87.0239 689.67 87.151 692.312 88.6221 694.911C94.6691 701.781 100.748 708.785 106.795 715.655C105.697 717.942 104.169 720.214 102.172 722.918C96.2112 717.616 89.4523 712.555 83.1197 708.09C81.2656 709.591 80.1779 710.716 79.6544 711.816C83.2238 719.361 89.1133 729.176 92.6828 736.72C91.1269 738.276 89.1078 739.682 86.4652 740.262C80.3357 733.345 73.0702 723.438 66.0093 716.802C64.8081 715.643 62.6016 715.657 60.7845 716.712C57.2834 718.782 53.7562 718.035 54.4839 712.382C54.7832 710.336 54.22 708.26 50.8406 705.729C38.0287 696.481 25.1528 686.963 12.3409 677.715C11.9738 677.971 11.6892 678.274 11.2901 678.394C10.8404 678.602 10.2946 678.405 9.75374 677.626C9.35948 677.165 9.46049 676.99 9.51589 676.321C9.95308 673.654 10.734 671.534 12.0423 669.836C12.7765 669.324 12.726 669.412 13.3864 669.792Z" fill="black" stroke="#282727" stroke-width="0.5" stroke-miterlimit="2.6131"/>
<path fill-rule="evenodd" clip-rule="evenodd" d="M15.2431 671.913C33.0457 681.467 51.0134 691.115 68.816 700.669C69.8951 698.605 71.2859 696.953 73.5391 695.332C64.9176 673.083 56.5991 650.308 47.9777 628.06C50.1852 625.945 52.0344 625.025 54.5759 624.62C55.5393 624.475 56.2551 624.186 56.4288 625.221C56.6531 626.167 56.5287 627.146 56.0742 627.936C55.5186 628.9 56.0595 629.679 56.3712 630.092C64.6289 646.292 73.5334 662.515 81.7405 678.803C82.7903 680.225 83.9139 680.755 85.29 680.847C89.969 680.74 93.1231 684.425 90.3958 689.16C88.8301 691.878 88.9572 694.52 90.4283 697.119C96.4753 703.989 102.554 710.993 108.601 717.863C107.504 720.15 105.773 722.773 103.859 725.524C97.898 720.223 91.0934 714.668 84.8113 710.116C83.5351 711.95 82.4153 712.939 81.3139 713.706C84.8834 721.251 89.1958 729.223 92.7148 736.855C91.1589 738.411 89.1398 739.817 86.4973 740.397C80.3678 733.48 74.8764 725.646 67.8981 719.058C66.6968 717.899 64.4904 717.912 62.6733 718.968C59.1721 721.038 55.6449 720.291 56.3727 714.638C56.6719 712.591 56.1088 710.515 52.7293 707.985C39.9175 698.737 27.0415 689.219 14.2297 679.971C13.3944 680.657 12.7427 681.216 11.592 679.969C11.1152 679.461 11.1657 679.373 11.2716 678.617C11.7088 675.949 12.4897 673.83 13.8485 672.044C14.5507 671.397 14.5322 671.62 15.2431 671.913Z" fill="black" stroke="#3C3C3B" stroke-width="0.5" stroke-miterlimit="2.6131"/>
<path fill-rule="evenodd" clip-rule="evenodd" d="M69.1695 700.055C65.8867 705.755 66.8419 712.494 71.2993 715.061C75.7567 717.629 82.0655 715.073 85.3484 709.374C88.6313 703.675 87.6761 696.935 83.2186 694.368C78.7107 691.888 72.4524 694.356 69.1695 700.055Z" fill="#3C3C3B" stroke="#282727" stroke-width="0.5" stroke-miterlimit="2.6131"/>
<path fill-rule="evenodd" clip-rule="evenodd" d="M70.2426 700.673C67.2628 705.846 68.2229 712.005 72.3501 714.382C76.4774 716.759 82.286 714.5 85.2659 709.326C88.2457 704.153 87.2856 697.995 83.1583 695.618C79.0311 693.24 73.2225 695.5 70.2426 700.673Z" fill="black" stroke="#282727" stroke-width="0.5" stroke-miterlimit="2.6131"/>
<path fill-rule="evenodd" clip-rule="evenodd" d="M76.08 704.853C75.3729 706.08 75.5603 707.473 76.5508 708.043C77.5413 708.614 78.8398 708.077 79.5469 706.85C80.254 705.622 80.0666 704.23 79.0761 703.659C78.0855 703.089 76.7871 703.625 76.08 704.853Z" fill="black" stroke="#3C3C3B" stroke-width="0.5" stroke-miterlimit="2.6131"/>
<path fill-rule="evenodd" clip-rule="evenodd" d="M84.8938 710.163C91.2905 714.899 97.6503 720.08 103.84 725.747C103.143 725.813 102.413 725.743 101.684 725.673C95.8196 720.777 90.0377 715.929 84.2557 711.08C84.4578 710.729 84.6598 710.379 84.8938 710.163Z" fill="#3C3C3B" stroke="black" stroke-width="0.5" stroke-miterlimit="2.6131" stroke-linecap="round" stroke-linejoin="round"/>
<path fill-rule="evenodd" clip-rule="evenodd" d="M9.52458 677.26C9.93462 673.877 10.936 671.184 12.726 669.412C13.3174 670.103 13.9088 670.794 14.5002 671.485C12.9763 673.176 12.0118 675.423 11.6251 678.003C11.5377 678.537 11.5008 678.983 11.4133 679.516C10.7714 678.913 10.0975 678.174 9.52458 677.26Z" fill="#282727" stroke="black" stroke-width="0.5" stroke-miterlimit="2.6131"/>
<path fill-rule="evenodd" clip-rule="evenodd" d="M54.0633 622.457C51.9258 622.16 48.2139 623.642 45.9879 625.98C46.7123 626.63 47.2532 627.409 47.8951 628.012C49.419 626.321 51.7683 625.105 54.3603 624.613C54.842 624.54 55.0761 624.325 56.1356 624.585C55.6267 623.941 54.9713 622.98 54.0633 622.457Z" fill="#282727" stroke="black" stroke-width="0.5" stroke-miterlimit="2.6131"/>
<path d="M71.2376 692.838C68.3512 694.796 66.7768 696.575 66.2115 698.702M71.9115 693.577C69.0251 695.534 67.6023 697.05 67.17 699.137M72.567 694.538C69.6806 696.496 68.6433 697.533 68.1285 699.572" stroke="#282727" stroke-width="0.5" stroke-miterlimit="2.6131"/>
<path fill-rule="evenodd" clip-rule="evenodd" d="M98.3378 721.177L103.262 725.414L101.322 725.348L97.0258 721.355L98.3378 721.177Z" fill="#C1994B"/>
<path fill-rule="evenodd" clip-rule="evenodd" d="M101.94 726.755L102.344 726.053L102.799 725.264L102.019 725.282L101.239 725.3L101.565 726.071L101.94 726.755Z" fill="#D7B46A"/>
<path fill-rule="evenodd" clip-rule="evenodd" d="M102.321 726.857L102.776 726.068L103.18 725.367L102.4 725.385L101.671 725.315L101.996 726.086L102.321 726.857Z" fill="#D7B46A"/>
<path fill-rule="evenodd" clip-rule="evenodd" d="M102.885 726.832L103.326 725.685L103.262 725.414L102.964 725.359L102.235 725.29L102.56 726.061L102.885 726.832Z" fill="#D7B46A"/>
<path fill-rule="evenodd" clip-rule="evenodd" d="M97.5802 722.492L97.8512 721.83L98.1727 721.081L97.4249 721.235L96.8102 721.348L97.154 721.896L97.5802 722.492Z" fill="#D7B46A"/>
<path fill-rule="evenodd" clip-rule="evenodd" d="M98.0114 722.507L98.2824 721.845L98.4709 721.136L97.8561 721.249L97.1588 721.315L97.5851 721.911L98.0114 722.507Z" fill="#D7B46A"/>
<path fill-rule="evenodd" clip-rule="evenodd" d="M98.4611 722.299L98.8011 721.327L98.6039 721.096L98.3883 721.089L97.6405 721.242L98.1173 721.75L98.4611 722.299Z" fill="#D7B46A"/>
<path fill-rule="evenodd" clip-rule="evenodd" d="M81.3965 713.754C84.8514 721.116 88.5626 729.559 92.8479 736.815C92.9538 736.059 92.8392 735.876 92.9451 735.12C89.2697 728.332 85.5905 720.023 81.9151 713.235C81.5985 713.403 81.7131 713.586 81.3965 713.754Z" fill="#3C3C3B" stroke="black" stroke-width="0.5" stroke-miterlimit="2.6131" stroke-linecap="round" stroke-linejoin="round"/>
<path fill-rule="evenodd" clip-rule="evenodd" d="M89.6123 730.981L92.5361 736.402L92.8169 734.579L90.0903 729.388L89.6123 730.981Z" fill="#C1994B"/>
<path fill-rule="evenodd" clip-rule="evenodd" d="M90.9613 730.357L90.2961 730.557L89.5988 730.623L89.8698 729.962L90.0903 729.388L90.5671 729.896L90.9613 730.357Z" fill="#D7B46A"/>
<path fill-rule="evenodd" clip-rule="evenodd" d="M90.8923 730.667L90.2776 730.78L89.5298 730.933L89.8008 730.272L90.0718 729.611L90.4981 730.207L90.8923 730.667Z" fill="#D7B46A"/>
<path fill-rule="evenodd" clip-rule="evenodd" d="M90.6398 731.106L89.7269 731.164L89.6123 730.981L89.6308 730.758L89.8513 730.185L90.2456 730.645L90.6398 731.106Z" fill="#D7B46A"/>
<path fill-rule="evenodd" clip-rule="evenodd" d="M93.6375 735.635L93.1053 735.796L92.4905 735.909L92.6285 735.287L92.8169 734.578L93.1607 735.127L93.6375 735.635Z" fill="#D7B46A"/>
<path fill-rule="evenodd" clip-rule="evenodd" d="M93.6511 735.993L93.0363 736.106L92.4216 736.219L92.5595 735.598L92.748 734.889L93.2248 735.397L93.6511 735.993Z" fill="#D7B46A"/>
<path fill-rule="evenodd" clip-rule="evenodd" d="M93.4811 736.479L92.5682 736.537L92.4536 736.354L92.3895 736.084L92.578 735.375L93.0548 735.883L93.4811 736.479Z" fill="#D7B46A"/>
</g>
<g clip-path="url(#clip1_20_121)">
<path fill-rule="evenodd" clip-rule="evenodd" d="M101.213 25.3096C122.331 27.2715 141.852 29.1305 162.969 31.0924C162.721 33.3812 162.979 35.6024 164.016 38.1744C143.511 51.5837 124.951 65.92 104.446 79.3293C105.258 82.2876 106.346 84.0612 108.339 85.7929C109.192 86.5494 109.665 86.9807 110.521 86.134C111.165 85.474 111.516 84.695 111.561 83.9964C111.632 82.8987 112.556 82.5574 113.067 82.3899C129.664 73.639 146.841 65.226 163.444 56.3753C165.186 55.7861 166.477 55.9695 167.736 56.6518C171.773 59.3169 176.665 58.0288 177.013 52.64C177.212 49.5464 178.85 47.4474 181.641 46.1241C190.909 43.8153 200.283 41.413 209.55 39.1041C209.911 36.6222 209.885 33.9149 209.698 30.596C201.412 31.6655 192.566 32.0975 184.437 32.2753C183.681 30.022 183.378 28.4993 183.555 27.3083C191.042 23.0809 201.874 18.2675 209.362 14.0401C208.898 11.9059 207.942 9.63973 205.962 7.70842C196.594 10.0109 184.504 14.142 174.483 15.7009C172.76 15.9908 170.835 14.7644 169.853 12.8974C167.983 9.26964 164.461 7.94044 161.831 12.9818C160.911 14.8264 159.218 16.2204 154.795 16.4365C138.226 16.9722 121.445 17.6947 104.876 18.2305C104.702 17.8184 104.628 17.4128 104.348 17.0942C104.074 16.6757 103.482 16.5373 102.558 16.8786C101.946 17.0396 101.934 17.2392 101.596 17.8187C100.437 20.2492 99.8963 22.4189 100.061 24.5339C100.408 25.358 100.415 25.2582 101.213 25.3096Z" fill="black" stroke="#282727" stroke-width="0.5" stroke-miterlimit="2.6131"/>
<path fill-rule="evenodd" clip-rule="evenodd" d="M104.065 24.5915C125.183 26.5534 146.5 28.5282 167.617 30.4901C167.37 32.7789 167.634 34.9003 168.671 37.4723C148.259 50.9878 127.81 65.1021 107.398 78.6176C108.11 81.5695 109.198 83.3432 111.191 85.0749C111.951 85.7251 112.411 86.356 113.161 85.6026C113.905 84.9491 114.362 84.0767 114.42 83.1785C114.49 82.0808 115.414 81.7395 115.926 81.5721C132.523 72.8211 149.699 64.4082 166.303 55.5574C168.044 54.9682 169.335 55.1516 170.594 55.8339C174.631 58.499 179.524 57.211 179.871 51.8221C180.07 48.7286 181.709 46.6296 184.5 45.3063C193.767 42.9974 203.141 40.5952 212.409 38.2863C212.769 35.8043 212.769 32.6979 212.682 29.3854C204.396 30.4548 195.225 31.2668 187.09 31.5443C187.032 29.336 186.623 27.9068 186.101 26.6707C193.589 22.4434 201.974 18.2739 209.468 13.9468C209.004 11.8126 208.048 9.5464 206.068 7.61509C196.7 9.91754 187.362 13.3241 177.441 14.8895C175.719 15.1793 173.794 13.953 172.812 12.086C170.941 8.45821 167.419 7.12901 164.79 12.1704C163.869 14.015 162.176 15.409 157.753 15.6251C141.184 16.1608 124.403 16.8833 107.834 17.419C107.499 16.3954 107.251 15.5777 105.523 15.9674C104.811 16.122 104.805 16.2218 104.461 16.901C103.302 19.3316 102.761 21.5013 102.919 23.716C103.161 24.6335 103.273 24.4403 104.065 24.5915Z" fill="black" stroke="#3C3C3B" stroke-width="0.5" stroke-miterlimit="2.6131"/>
<path fill-rule="evenodd" clip-rule="evenodd" d="M167.572 31.1887C167.99 24.7021 172.722 19.696 178.111 20.0432C183.5 20.3904 187.55 25.9624 187.132 32.4489C186.714 38.9355 181.982 43.9416 176.593 43.5944C171.211 43.1474 167.155 37.6752 167.572 31.1887Z" fill="#3C3C3B" stroke="#282727" stroke-width="0.5" stroke-miterlimit="2.6131"/>
<path fill-rule="evenodd" clip-rule="evenodd" d="M168.87 31.2722C169.249 25.3844 173.649 20.858 178.639 21.1795C183.629 21.501 187.411 26.5547 187.032 32.4425C186.653 38.3303 182.253 42.8567 177.263 42.5352C172.273 42.2137 168.49 37.16 168.87 31.2722Z" fill="black" stroke="#282727" stroke-width="0.5" stroke-miterlimit="2.6131"/>
<path fill-rule="evenodd" clip-rule="evenodd" d="M176.399 31.056C176.489 29.6589 177.458 28.619 178.656 28.6962C179.853 28.7733 180.681 29.9289 180.591 31.326C180.501 32.7231 179.532 33.763 178.334 33.6858C177.137 33.6087 176.309 32.4531 176.399 31.056Z" fill="black" stroke="#3C3C3B" stroke-width="0.5" stroke-miterlimit="2.6131"/>
<path fill-rule="evenodd" clip-rule="evenodd" d="M187.19 31.5507C195.53 31.1863 204.096 30.4355 212.794 29.1922C212.221 28.7545 211.542 28.4101 210.863 28.0657C202.896 28.855 195.028 29.6508 187.161 30.4466C187.135 30.8458 187.109 31.2449 187.19 31.5507Z" fill="#3C3C3B" stroke="black" stroke-width="0.5" stroke-miterlimit="2.6131" stroke-linecap="round" stroke-linejoin="round"/>
<path fill-rule="evenodd" clip-rule="evenodd" d="M102.146 17.0525C100.55 20.056 99.8706 22.8181 100.415 25.2581C101.332 25.0166 102.25 24.7751 103.167 24.5336C102.81 22.306 103.263 19.9302 104.416 17.5995C104.647 17.1134 104.873 16.7271 105.104 16.241C104.193 16.3827 103.176 16.6178 102.146 17.0525Z" fill="#282727" stroke="black" stroke-width="0.5" stroke-miterlimit="2.6131"/>
<path fill-rule="evenodd" clip-rule="evenodd" d="M109.491 86.5686C107.447 85.6352 105.052 82.3745 104.453 79.2295C105.464 79.0942 106.387 78.7529 107.298 78.6111C107.656 80.8387 109.011 83.1306 110.998 84.9621C111.378 85.2872 111.458 85.5931 112.537 85.9632C111.719 86.2111 110.589 86.6393 109.491 86.5686Z" fill="#282727" stroke="black" stroke-width="0.5" stroke-miterlimit="2.6131"/>
<path d="M165.213 38.2515C163.816 35.055 163.465 32.7277 164.199 30.6706M166.231 38.0164C164.833 34.82 164.463 32.792 165.29 30.8411M167.361 37.5882C165.963 34.3917 165.654 32.9689 166.381 31.0116" stroke="#282727" stroke-width="0.5" stroke-miterlimit="2.6131"/>
<path fill-rule="evenodd" clip-rule="evenodd" d="M205.333 29.9139L212.096 29.1472L210.357 28.1333L204.286 29.0448L205.333 29.9139Z" fill="#C1994B"/>
<path fill-rule="evenodd" clip-rule="evenodd" d="M211.713 27.3188L211.661 28.1172L211.603 29.0153L210.93 28.5711L210.258 28.127L210.988 27.673L211.713 27.3188Z" fill="#D7B46A"/>
<path fill-rule="evenodd" clip-rule="evenodd" d="M212.105 27.4443L212.047 28.3425L211.996 29.1408L211.323 28.6966L210.644 28.3522L211.375 27.8983L212.105 27.4443Z" fill="#D7B46A"/>
<path fill-rule="evenodd" clip-rule="evenodd" d="M212.585 27.7758L212.308 28.9605L212.096 29.1472L211.803 29.0281L211.124 28.6837L211.854 28.2298L212.585 27.7758Z" fill="#D7B46A"/>
<path fill-rule="evenodd" clip-rule="evenodd" d="M205.429 28.417L205.284 29.1091L205.133 29.9011L204.566 29.3635L204.093 28.9322L204.711 28.6714L205.429 28.417Z" fill="#D7B46A"/>
<path fill-rule="evenodd" clip-rule="evenodd" d="M205.815 28.6424L205.671 29.3345L205.426 30.0202L204.953 29.5889L204.38 29.1511L205.097 28.8967L205.815 28.6424Z" fill="#D7B46A"/>
<path fill-rule="evenodd" clip-rule="evenodd" d="M206.089 29.0608L205.825 30.0459L205.519 30.1264L205.326 30.0137L204.76 29.4762L205.471 29.3216L206.089 29.0608Z" fill="#D7B46A"/>
<path fill-rule="evenodd" clip-rule="evenodd" d="M186.201 26.6771C193.482 22.5367 201.613 17.6494 209.561 14.053C209.217 14.7322 209.011 14.8192 208.666 15.4984C201.523 19.0465 193.499 23.8404 186.356 27.3885C186.175 27.0762 186.381 26.9893 186.201 26.6771Z" fill="#3C3C3B" stroke="black" stroke-width="0.5" stroke-miterlimit="2.6131" stroke-linecap="round" stroke-linejoin="round"/>
<path fill-rule="evenodd" clip-rule="evenodd" d="M203.355 17.0601L209.049 14.2204L208.241 15.8719L202.853 18.6311L203.355 17.0601Z" fill="#C1994B"/>
<path fill-rule="evenodd" clip-rule="evenodd" d="M204.176 18.3155L203.709 17.7844L203.136 17.3467L202.991 18.0388L202.853 18.6311L203.564 18.4765L204.176 18.3155Z" fill="#D7B46A"/>
<path fill-rule="evenodd" clip-rule="evenodd" d="M204.295 18.0226L203.822 17.5913L203.255 17.0538L203.11 17.7459L202.966 18.438L203.683 18.1836L204.295 18.0226Z" fill="#D7B46A"/>
<path fill-rule="evenodd" clip-rule="evenodd" d="M204.327 17.5237L203.561 16.9733L203.355 17.0602L203.242 17.2534L203.104 17.8457L203.716 17.6847L204.327 17.5237Z" fill="#D7B46A"/>
<path fill-rule="evenodd" clip-rule="evenodd" d="M209.571 15.4566L209.197 15.0317L208.724 14.6004L208.486 15.1863L208.241 15.8719L208.86 15.6111L209.571 15.4566Z" fill="#D7B46A"/>
<path fill-rule="evenodd" clip-rule="evenodd" d="M209.79 15.17L209.317 14.7387L208.843 14.3074L208.605 14.8933L208.361 15.579L209.072 15.4244L209.79 15.17Z" fill="#D7B46A"/>
<path fill-rule="evenodd" clip-rule="evenodd" d="M209.922 14.6775L209.156 14.1271L208.95 14.214L208.737 14.4007L208.492 15.0864L209.204 14.9319L209.922 14.6775Z" fill="#D7B46A"/>
</g>
<defs>
<clipPath id="clip0_20_121">
<rect width="86.618" height="108.214" fill="white" transform="matrix(-0.49912 0.866533 0.866533 0.49912 43.2328 616)"/>
</clipPath>
<clipPath id="clip1_20_121">
<rect width="85.6" height="113.6" fill="white" transform="translate(96 86) rotate(-86.3134)"/>
</clipPath>
</defs>
</svg>
