<svg width="601" height="209" viewBox="0 0 601 209" fill="none" xmlns="http://www.w3.org/2000/svg">
<g filter="url(#filter0_d_72_63)">
<path d="M67.3273 2.20996C73.6873 2.20996 79.7822 2.73997 85.6122 3.79997C91.6189 4.85997 97.1839 6.18497 102.307 7.77497C107.431 9.36497 112.024 11.22 116.087 13.34C120.327 15.2833 123.949 17.315 126.952 19.435L111.582 48.585C109.462 47.525 106.901 46.2 103.897 44.61C100.894 42.8433 97.6256 41.165 94.0923 39.575C90.7356 37.985 87.2022 36.66 83.4922 35.6C79.9589 34.54 76.514 34.01 73.1573 34.01C66.974 34.01 62.3806 35.335 59.3773 37.985C56.3739 40.4583 54.8723 43.6383 54.8723 47.525C55.0489 50.5283 55.7556 53.1783 56.9922 55.475C58.2289 57.7716 60.0839 60.0683 62.5573 62.365C65.0306 64.485 68.2106 66.605 72.0973 68.725C75.984 70.845 80.754 73.0533 86.4073 75.35C93.474 78.3533 99.6573 81.445 104.957 84.625C110.257 87.805 114.586 91.4266 117.942 95.49C121.476 99.5533 124.126 104.147 125.892 109.27C127.659 114.393 128.542 120.312 128.542 127.025C128.542 135.152 127.041 142.837 124.037 150.08C121.211 157.147 117.059 163.33 111.582 168.63C106.106 173.93 99.4806 178.082 91.7073 181.085C83.9339 184.088 75.189 185.59 65.4723 185.59C58.5823 185.59 51.9573 184.972 45.5973 183.735C39.414 182.498 33.6723 180.908 28.3723 178.965C23.0723 177.022 18.2139 174.99 13.7972 172.87C9.38057 170.573 5.58228 168.453 2.40228 166.51L16.7123 135.24C17.9489 136.123 20.2456 137.625 23.6023 139.745C26.959 141.688 30.7573 143.72 34.9973 145.84C39.2373 147.783 43.5656 149.55 47.9822 151.14C52.3989 152.73 56.374 153.525 59.9073 153.525C67.3273 153.525 72.7156 151.847 76.0723 148.49C79.6056 144.957 81.3723 140.01 81.3723 133.65C81.3723 127.29 79.1639 122.52 74.7473 119.34C70.5073 115.983 64.4123 112.715 56.4623 109.535C48.6889 106.355 41.7989 102.998 35.7922 99.465C29.7856 95.9316 24.6622 91.9566 20.4222 87.54C16.3589 83.1233 13.1789 78.1766 10.8823 72.7C8.76226 67.2233 7.70227 60.8633 7.70227 53.62C7.70227 45.67 9.29229 38.6033 12.4723 32.42C15.829 26.06 20.2456 20.6716 25.7223 16.255C31.199 11.6616 37.4706 8.21663 44.5373 5.91996C51.7806 3.44663 59.3773 2.20996 67.3273 2.20996Z" fill="#FF0000"/>
<path d="M130.687 52.03H152.417L156.922 24.735L193.227 16.785V52.03H224.497L219.462 82.77H193.227V141.865C193.227 149.638 197.29 153.525 205.417 153.525C209.834 153.525 214.074 153.083 218.137 152.2C220.257 151.67 222.377 151.14 224.497 150.61L231.652 178.7C228.119 179.937 223.172 181.35 216.812 182.94C210.629 184.353 203.032 185.06 194.022 185.06C180.772 185.06 170.349 182.322 162.752 176.845C155.332 171.368 151.622 162.093 151.622 149.02V82.77H130.687V52.03Z" fill="#FF0000"/>
<path d="M354.335 120.135C354.335 130.735 355.041 139.568 356.455 146.635C357.868 153.702 359.546 159.355 361.49 163.595C363.61 168.718 366.083 172.693 368.91 175.52L335.255 186.12C333.311 184.353 331.545 182.145 329.955 179.495C328.541 177.198 327.128 174.46 325.715 171.28C324.478 167.923 323.418 164.037 322.535 159.62C319.531 167.923 315.115 174.372 309.285 178.965C303.455 183.382 295.77 185.59 286.23 185.59C277.573 185.59 269.976 184 263.44 180.82C257.08 177.64 251.78 173.223 247.54 167.57C243.3 161.74 240.12 154.762 238 146.635C236.056 138.508 235.085 129.498 235.085 119.605C235.085 109.535 236.675 100.172 239.855 91.515C243.211 82.8583 247.805 75.4383 253.635 69.255C259.465 62.895 266.443 57.9483 274.57 54.415C282.696 50.8816 291.706 49.115 301.6 49.115C307.076 49.115 312.906 49.5566 319.09 50.44C325.273 51.1466 330.926 52.03 336.05 53.09C341.173 53.9733 345.413 54.8566 348.77 55.74C352.303 56.4466 354.158 56.8 354.335 56.8V120.135ZM293.12 154.85C295.77 154.85 298.243 153.702 300.54 151.405C303.013 149.108 305.133 146.017 306.9 142.13C308.666 138.243 309.991 133.827 310.875 128.88C311.935 123.757 312.465 118.368 312.465 112.715V81.975C311.228 81.445 309.461 81.0033 307.165 80.65C305.045 80.12 303.19 79.855 301.6 79.855C297.36 79.855 293.826 80.8266 291 82.77C288.173 84.5366 285.876 87.0983 284.11 90.455C282.52 93.635 281.371 97.5216 280.665 102.115C279.958 106.708 279.605 111.655 279.605 116.955C279.605 121.902 279.693 126.672 279.87 131.265C280.046 135.682 280.576 139.657 281.46 143.19C282.52 146.723 283.933 149.55 285.7 151.67C287.466 153.79 289.94 154.85 293.12 154.85Z" fill="#FF0000"/>
<path d="M448.254 89.13C446.311 89.13 444.191 89.66 441.894 90.72C439.598 91.78 437.389 93.4583 435.269 95.755C433.149 97.875 431.383 100.702 429.969 104.235C428.556 107.592 427.849 111.655 427.849 116.425V184H385.979V115.1C385.979 104.5 385.184 95.755 383.594 88.865C382.181 81.7983 380.503 76.0566 378.559 71.64C376.439 66.6933 374.054 62.7183 371.404 59.715L405.059 49.115C406.473 50.8816 407.974 52.9133 409.564 55.21C410.801 57.1533 412.126 59.6266 413.539 62.63C414.953 65.6333 416.101 69.0783 416.984 72.965C421.401 64.485 426.613 58.39 432.619 54.68C438.803 50.97 446.046 49.115 454.349 49.115C458.059 49.115 461.328 49.4683 464.154 50.175C467.158 50.705 469.631 51.3233 471.574 52.03L460.709 92.045C459.473 91.3383 457.794 90.72 455.674 90.19C453.731 89.4833 451.258 89.13 448.254 89.13Z" fill="#FF0000"/>
<path d="M477.723 52.03H499.453L503.958 24.735L540.263 16.785V52.03H571.533L566.498 82.77H540.263V141.865C540.263 149.638 544.327 153.525 552.453 153.525C556.87 153.525 561.11 153.083 565.173 152.2C567.293 151.67 569.413 151.14 571.533 150.61L578.688 178.7C575.155 179.937 570.208 181.35 563.848 182.94C557.665 184.353 550.068 185.06 541.058 185.06C527.808 185.06 517.385 182.322 509.788 176.845C502.368 171.368 498.658 162.093 498.658 149.02V82.77H477.723V52.03Z" fill="#FF0000"/>
</g>
<defs>
<filter id="filter0_d_72_63" x="0.402283" y="0.209961" width="600.286" height="207.91" filterUnits="userSpaceOnUse" color-interpolation-filters="sRGB">
<feFlood flood-opacity="0" result="BackgroundImageFix"/>
<feColorMatrix in="SourceAlpha" type="matrix" values="0 0 0 0 0 0 0 0 0 0 0 0 0 0 0 0 0 0 127 0" result="hardAlpha"/>
<feOffset dx="10" dy="10"/>
<feGaussianBlur stdDeviation="6"/>
<feComposite in2="hardAlpha" operator="out"/>
<feColorMatrix type="matrix" values="0 0 0 0 0 0 0 0 0 0 0 0 0 0 0 0 0 0 0.3 0"/>
<feBlend mode="normal" in2="BackgroundImageFix" result="effect1_dropShadow_72_63"/>
<feBlend mode="normal" in="SourceGraphic" in2="effect1_dropShadow_72_63" result="shape"/>
</filter>
</defs>
</svg>
